<svg width="360" height="800" viewBox="0 0 360 800" fill="none" xmlns="http://www.w3.org/2000/svg">
<g clip-path="url(#clip0_384_6115)">
<rect width="360" height="800" fill="#F5F3F2"/>
<rect width="368" height="762" fill="#24244E"/>
<rect y="456" width="368" height="365" rx="8" fill="#F5F3F2"/>
<rect x="126" y="786" width="108" height="4" rx="2" fill="#D9D9D9"/>
<path d="M31.46 529.48C30.5267 529.48 29.6867 529.267 28.94 528.84C28.2067 528.413 27.6333 527.82 27.22 527.06C26.8067 526.3 26.6 525.433 26.6 524.46C26.6 523.487 26.8067 522.62 27.22 521.86C27.6333 521.087 28.2067 520.487 28.94 520.06C29.6867 519.62 30.5267 519.4 31.46 519.4C32.3133 519.4 33.08 519.58 33.76 519.94C34.4533 520.3 35.0133 520.807 35.44 521.46C35.88 522.1 36.1533 522.84 36.26 523.68H39.18V517.8H41.34V535.04H39.18V525.42H36.22C36.0333 526.633 35.5067 527.613 34.64 528.36C33.7733 529.107 32.7133 529.48 31.46 529.48ZM28.74 524.46C28.74 525.407 28.9867 526.173 29.48 526.76C29.9867 527.333 30.6467 527.62 31.46 527.62C32.2733 527.62 32.9267 527.333 33.42 526.76C33.9133 526.173 34.16 525.407 34.16 524.46C34.16 523.5 33.9133 522.727 33.42 522.14C32.9267 521.553 32.2733 521.26 31.46 521.26C30.6467 521.26 29.9867 521.553 29.48 522.14C28.9867 522.727 28.74 523.5 28.74 524.46ZM49.207 529.64V533.5H58.907V535.26H47.047V529.64H49.207ZM44.287 519.16H48.967V520.92H46.447V526.26H49.127V528.06H44.287V519.16ZM49.767 519.16H54.327V520.92H51.927V526.26H54.767V528.06H49.767V519.16ZM53.827 522.58H56.547V517.84H58.687V530.08H56.547V524.32H53.827V522.58ZM80.8434 517.82V535H78.7834V526.56H76.9634V534.16H74.9434V518.14H76.9634V524.78H78.7834V517.82H80.8434ZM67.9034 525.18C68.2368 524.607 68.4501 524.167 68.5434 523.86C68.6501 523.553 68.7034 523.18 68.7034 522.74V521.24H65.8234V519.48H73.6634V521.24H70.7834V522.74C70.7834 523.18 70.8301 523.553 70.9234 523.86C71.0301 524.167 71.2501 524.607 71.5834 525.18L74.3034 529.78L72.5834 530.78L69.8634 526.18L69.7434 525.98L69.6234 526.18L66.8834 530.8L65.1634 529.76L67.9034 525.18ZM87.1505 531.36V528.62H85.2105V522.94H94.6105V520.82H85.1705V519.08H96.4905V524.64H87.2305V526.88H96.8905V528.62H94.6905V531.36H98.8905V533.14H82.7705V531.36H87.1505ZM92.5705 531.36V528.62H89.2705V531.36H92.5705ZM116.098 525.92V527.52H99.9775V525.92H116.098ZM102.278 528.62H113.678V532.68H104.478V533.92H114.198V535.44H102.318V531.26H111.538V530.12H102.278V528.62ZM102.498 518.22H113.638V522.22H104.658V523.38H113.978V524.9H102.538V520.82H111.498V519.72H102.498V518.22ZM136.454 517.8V535.04H134.274V517.8H136.454ZM122.834 519.26H124.994V523.62H129.274V519.26H131.434V530.78H122.834V519.26ZM129.274 529.04V525.32H124.994V529.04H129.274ZM147.001 524.72C146.041 524.72 145.188 524.573 144.441 524.28C143.694 523.973 143.108 523.553 142.681 523.02C142.268 522.473 142.061 521.853 142.061 521.16C142.061 520.467 142.268 519.847 142.681 519.3C143.108 518.74 143.694 518.307 144.441 518C145.188 517.693 146.041 517.54 147.001 517.54C147.974 517.54 148.841 517.693 149.601 518C150.361 518.307 150.954 518.74 151.381 519.3C151.808 519.847 152.021 520.467 152.021 521.16C152.021 521.853 151.808 522.473 151.381 523.02C150.954 523.553 150.361 523.973 149.601 524.28C148.841 524.573 147.974 524.72 147.001 524.72ZM139.001 525.44H155.061V527.14H150.901V528.46H152.601V532.7H143.521V533.8H153.121V535.46H141.361V531.16H150.481V530.1H141.321V528.46H143.161V527.14H139.001V525.44ZM144.161 521.16C144.161 521.693 144.421 522.127 144.941 522.46C145.474 522.793 146.168 522.96 147.021 522.96C147.888 522.96 148.588 522.793 149.121 522.46C149.654 522.127 149.921 521.693 149.921 521.16C149.921 520.613 149.648 520.167 149.101 519.82C148.568 519.473 147.874 519.3 147.021 519.3C146.168 519.3 145.474 519.473 144.941 519.82C144.421 520.167 144.161 520.613 144.161 521.16ZM148.741 528.46V527.14H145.301V528.46H148.741ZM163.148 531.16V528.64H158.648V522.96H167.888V520.82H158.608V519.08H169.928V524.66H160.668V526.9H170.328V528.64H165.328V531.16H172.328V532.94H156.208V531.16H163.148ZM191.864 517.8V524.7H194.484V526.48H191.864V535H189.684V517.8H191.864ZM178.624 519.4H180.784V528.86H188.004V530.66H178.624V519.4ZM209.071 517.82V524.74H211.771V526.54H209.071V535H206.891V517.82H209.071ZM195.931 519.46H204.331V521.24H198.091V524.06H203.811V525.88H198.091V528.86H205.091V530.66L195.931 530.64V519.46ZM227.538 517.82V526.86H225.458V523.24H223.578V526.82H221.538V518.14H223.578V521.52H225.458V517.82H227.538ZM213.198 518.8H215.378V524.56H220.218V526.34H213.198V518.8ZM216.418 527.6H227.538V532.22H218.618V533.68H228.038V535.4H216.458V530.62H225.378V529.28H216.418V527.6ZM243.705 517.82V524.78H246.105V526.58H243.705V535H241.545V517.82H243.705ZM229.685 527.6C230.339 527.147 230.899 526.667 231.365 526.16C231.845 525.653 232.239 525 232.545 524.2C232.865 523.387 233.025 522.4 233.025 521.24V521.2H230.485V519.42H235.105V521.24C235.105 523.333 234.692 524.993 233.865 526.22C233.052 527.447 232.045 528.467 230.845 529.28L229.685 527.6ZM234.265 529.26C236.625 527.553 237.805 524.88 237.805 521.24H235.565V519.46H239.885V521.24C239.885 523.693 239.445 525.713 238.565 527.3C237.699 528.873 236.659 530.087 235.445 530.94L234.265 529.26ZM251.093 531.26V527.36C250.586 526.907 250.193 526.36 249.913 525.72C249.633 525.067 249.493 524.36 249.493 523.6C249.493 522.613 249.719 521.733 250.173 520.96C250.639 520.173 251.279 519.567 252.093 519.14C252.906 518.7 253.833 518.48 254.873 518.48C255.926 518.48 256.866 518.7 257.693 519.14C258.519 519.567 259.159 520.173 259.613 520.96C260.079 521.733 260.313 522.613 260.313 523.6C260.313 524.36 260.173 525.06 259.893 525.7C259.626 526.327 259.239 526.873 258.733 527.34V531.26H262.973V533.04H246.853V531.26H251.093ZM251.613 523.6C251.613 524.56 251.913 525.353 252.513 525.98C253.126 526.593 253.913 526.9 254.873 526.9C255.859 526.9 256.659 526.593 257.273 525.98C257.886 525.353 258.193 524.56 258.193 523.6C258.193 522.627 257.886 521.833 257.273 521.22C256.659 520.593 255.859 520.28 254.873 520.28C253.913 520.28 253.126 520.593 252.513 521.22C251.913 521.833 251.613 522.627 251.613 523.6ZM256.553 531.26V528.48C256.006 528.627 255.446 528.7 254.873 528.7C254.273 528.7 253.733 528.633 253.253 528.5V531.26H256.553ZM268.72 534.46C268.346 534.46 268.04 534.34 267.8 534.1C267.573 533.873 267.46 533.58 267.46 533.22C267.46 532.86 267.573 532.567 267.8 532.34C268.04 532.1 268.346 531.98 268.72 531.98C269.08 531.98 269.373 532.1 269.6 532.34C269.826 532.567 269.94 532.86 269.94 533.22C269.94 533.58 269.826 533.873 269.6 534.1C269.373 534.34 269.08 534.46 268.72 534.46ZM264.36 522C264.733 521.013 265.353 520.207 266.22 519.58C267.1 518.94 268.04 518.62 269.04 518.62C269.96 518.62 270.766 518.807 271.46 519.18C272.166 519.54 272.713 520.053 273.1 520.72C273.486 521.387 273.68 522.147 273.68 523C273.68 523.787 273.466 524.54 273.04 525.26C272.626 525.98 271.933 526.707 270.96 527.44C270.453 527.813 270.12 528.173 269.96 528.52C269.813 528.853 269.746 529.387 269.76 530.12L267.64 530.14C267.626 529.113 267.78 528.26 268.1 527.58C268.42 526.9 268.953 526.287 269.7 525.74C270.433 525.18 270.926 524.707 271.18 524.32C271.433 523.92 271.56 523.487 271.56 523.02C271.56 522.34 271.32 521.793 270.84 521.38C270.373 520.967 269.76 520.76 269 520.76C268.44 520.76 267.913 520.947 267.42 521.32C266.94 521.68 266.586 522.153 266.36 522.74L264.36 522Z" fill="#414042"/>
<path d="M34.628 546.28V550.42H36.2V551.488H34.628V556.6H33.32V546.28H34.628ZM26.684 547.24H27.98V552.916H32.312V553.996H26.684V547.24ZM37.0562 547.276H42.0842V550.12H44.2322V546.28H45.5282V556.624H44.2322V551.176H42.0842V553.912H37.0562V547.276ZM40.8002 552.88V548.308H38.3402V552.88H40.8002ZM55.8284 546.292V556.6H54.5204V546.292H55.8284ZM49.0484 550.66C49.2964 550.316 49.4524 550.068 49.5164 549.916C49.5804 549.764 49.6124 549.564 49.6124 549.316V548.344H47.4884V547.288H53.0084V548.344H50.8844V549.316C50.8844 549.564 50.9164 549.764 50.9804 549.916C51.0444 550.068 51.2004 550.316 51.4484 550.66L53.4044 553.42L52.4204 554.116L50.4644 551.356C50.3924 551.268 50.3204 551.164 50.2484 551.044C50.1764 551.164 50.1044 551.268 50.0324 551.356L48.0764 554.116L47.0924 553.42L49.0484 550.66ZM69.2303 546.292V556.6H67.9943V551.536H66.9023V556.096H65.6903V546.484H66.9023V550.468H67.9943V546.292H69.2303ZM61.4663 550.708C61.6663 550.364 61.7943 550.1 61.8503 549.916C61.9143 549.732 61.9463 549.508 61.9463 549.244V548.344H60.2183V547.288H64.9223V548.344H63.1943V549.244C63.1943 549.508 63.2223 549.732 63.2783 549.916C63.3423 550.1 63.4743 550.364 63.6743 550.708L65.3063 553.468L64.2743 554.068L62.6423 551.308L62.5703 551.188L62.4983 551.308L60.8543 554.08L59.8223 553.456L61.4663 550.708ZM73.0145 554.416V552.772H71.8505V549.364H77.4905V548.092H71.8265V547.048H78.6185V550.384H73.0625V551.728H78.8585V552.772H77.5385V554.416H80.0585V555.484H70.3865V554.416H73.0145ZM76.2665 554.416V552.772H74.2865V554.416H76.2665ZM90.3707 550.636V551.668H80.7227V550.636H90.3707ZM82.1027 552.352H88.8707V554.992H83.4227V555.82H89.1827V556.828H82.1267V554.068H87.5387V553.336H82.1027V552.352ZM82.1867 546.628H88.9307V547.672H83.4827V548.92H89.0027V549.94H82.1867V546.628ZM100.671 551.668V552.7H91.0349V551.668H100.671ZM92.5229 553.516H93.8189V555.712H99.3629V556.768H92.5229V553.516ZM92.9429 548.596C92.9429 548.124 93.0629 547.712 93.3029 547.36C93.5509 547 93.8909 546.724 94.3229 546.532C94.7629 546.332 95.2669 546.232 95.8349 546.232C96.4029 546.232 96.9069 546.332 97.3469 546.532C97.7949 546.724 98.1429 547 98.3909 547.36C98.6389 547.712 98.7629 548.124 98.7629 548.596C98.7629 549.036 98.6389 549.436 98.3909 549.796C98.1429 550.148 97.7949 550.424 97.3469 550.624C96.9069 550.824 96.4029 550.924 95.8349 550.924C95.2749 550.924 94.7749 550.824 94.3349 550.624C93.8949 550.424 93.5509 550.148 93.3029 549.796C93.0629 549.436 92.9429 549.036 92.9429 548.596ZM94.1909 548.596C94.1909 548.964 94.3429 549.268 94.6469 549.508C94.9589 549.748 95.3589 549.868 95.8469 549.868C96.3429 549.868 96.7469 549.748 97.0589 549.508C97.3709 549.268 97.5269 548.964 97.5269 548.596C97.5269 548.196 97.3709 547.88 97.0589 547.648C96.7549 547.416 96.3509 547.3 95.8469 547.3C95.3509 547.3 94.9509 547.416 94.6469 547.648C94.3429 547.88 94.1909 548.196 94.1909 548.596ZM113.233 546.292V556.6H111.997V546.292H113.233ZM104.461 547.228H108.481V551.248H105.733V553.228H108.733V554.308H104.485V550.204H107.233V548.272H104.461V547.228ZM108.721 550.18H109.837V546.508H111.049V556.06H109.837V551.248H108.721V550.18ZM123.233 546.28V556.624H121.925V546.28H123.233ZM116.549 550.852C116.789 550.516 116.941 550.264 117.005 550.096C117.077 549.92 117.113 549.7 117.113 549.436V546.976H118.373V549.436C118.373 549.7 118.405 549.92 118.469 550.096C118.541 550.264 118.697 550.516 118.937 550.852L120.905 553.588L119.921 554.284L117.953 551.548C117.833 551.364 117.765 551.26 117.749 551.236L117.533 551.548L115.577 554.284L114.593 553.588L116.549 550.852ZM133.593 546.292V556.6H132.285V546.292H133.593ZM125.169 552.712H126.177V548.32H125.169V547.276H131.085V548.32H130.065V552.712H131.085V553.744H125.169V552.712ZM128.805 552.712V548.32H127.449V552.712H128.805ZM145.423 548.008V546.292H146.719V551.74H145.423V549.052H143.323V548.008H145.423ZM139.903 548.872C140.127 548.648 140.267 548.492 140.323 548.404C140.379 548.316 140.407 548.204 140.407 548.068V546.7H141.679V548.068C141.679 548.212 141.703 548.328 141.751 548.416C141.807 548.496 141.947 548.648 142.171 548.872L144.187 550.852L143.347 551.716L141.331 549.736C141.251 549.656 141.155 549.552 141.043 549.424L140.743 549.736L138.727 551.716L137.887 550.852L139.903 548.872ZM140.107 552.232H146.719V554.98H141.415V555.82H146.995V556.84H140.119V554.02H145.435V553.24H140.107V552.232ZM148.631 546.976H153.623V547.78H155.747V546.292H157.055V552.52H155.747V551.104H153.623V551.86H148.631V546.976ZM152.351 550.816V548.008H149.903V550.816H152.351ZM151.163 554.944C151.163 554.504 151.275 554.108 151.499 553.756C151.731 553.404 152.051 553.132 152.459 552.94C152.875 552.74 153.343 552.64 153.863 552.64C154.391 552.64 154.859 552.74 155.267 552.94C155.683 553.132 156.007 553.404 156.239 553.756C156.471 554.108 156.587 554.504 156.587 554.944C156.587 555.392 156.471 555.788 156.239 556.132C156.007 556.484 155.683 556.756 155.267 556.948C154.859 557.148 154.391 557.248 153.863 557.248C153.343 557.248 152.875 557.148 152.459 556.948C152.051 556.756 151.731 556.484 151.499 556.132C151.275 555.788 151.163 555.392 151.163 554.944ZM152.435 554.944C152.435 555.32 152.567 555.624 152.831 555.856C153.095 556.08 153.439 556.192 153.863 556.192C154.295 556.192 154.647 556.076 154.919 555.844C155.191 555.612 155.327 555.312 155.327 554.944C155.327 554.576 155.191 554.276 154.919 554.044C154.647 553.812 154.295 553.696 153.863 553.696C153.439 553.696 153.095 553.812 152.831 554.044C152.567 554.268 152.435 554.568 152.435 554.944ZM155.747 550.06V548.824H153.623V550.06H155.747ZM167.68 546.292V556.6H166.444V546.292H167.68ZM158.524 550.276C158.524 549.692 158.632 549.172 158.848 548.716C159.064 548.252 159.364 547.892 159.748 547.636C160.132 547.372 160.568 547.24 161.056 547.24C161.736 547.24 162.304 547.476 162.76 547.948C163.216 548.42 163.488 549.04 163.576 549.808H164.332V546.484H165.556V556.096H164.332V550.864H163.564C163.452 551.6 163.172 552.188 162.724 552.628C162.276 553.068 161.72 553.288 161.056 553.288C160.568 553.288 160.132 553.16 159.748 552.904C159.364 552.648 159.064 552.292 158.848 551.836C158.632 551.38 158.524 550.86 158.524 550.276ZM159.748 550.276C159.748 550.828 159.868 551.276 160.108 551.62C160.348 551.956 160.664 552.124 161.056 552.124C161.448 552.124 161.764 551.956 162.004 551.62C162.252 551.276 162.376 550.828 162.376 550.276C162.376 549.716 162.252 549.264 162.004 548.92C161.764 548.576 161.448 548.404 161.056 548.404C160.664 548.404 160.348 548.576 160.108 548.92C159.868 549.264 159.748 549.716 159.748 550.276ZM178.489 554.188V553.444H172.993V552.484H175.765V551.656H171.601V550.612H181.237V551.656H177.073V552.484H179.761V555.1H174.313V555.892H180.073V556.876H173.017V554.188H178.489ZM175.225 547.972C175.425 547.884 175.561 547.808 175.633 547.744C175.713 547.68 175.761 547.612 175.777 547.54H172.897V546.484H179.929V547.54H177.061C177.077 547.612 177.121 547.68 177.193 547.744C177.273 547.808 177.413 547.884 177.613 547.972L180.205 549.124L179.749 550.18L177.133 549.028C176.837 548.884 176.597 548.728 176.413 548.56C176.245 548.728 176.009 548.884 175.705 549.028L173.077 550.18L172.621 549.124L175.225 547.972ZM188.61 550.228V547.804H183.126V546.736H189.918V550.228H191.598V551.272H181.926V550.228H188.61ZM183.246 552.04H190.134V554.92H184.578V555.856H190.422V556.876H183.27V553.948H188.838V553.06H183.246V552.04ZM196.414 554.296V552.784H193.714V549.376H199.258V548.092H193.69V547.048H200.482V550.396H194.926V551.74H200.722V552.784H197.722V554.296H201.922V555.364H192.25V554.296H196.414ZM212.888 548.716V546.292H214.196V552.652H212.888V549.784H211.088V548.716H212.888ZM207.428 549.292C207.652 549.068 207.792 548.904 207.848 548.8C207.904 548.688 207.932 548.552 207.932 548.392V547.864H205.736V546.808H211.256V547.864H209.168V548.392C209.168 548.56 209.196 548.696 209.252 548.8C209.308 548.896 209.448 549.06 209.672 549.292L211.7 551.32L210.86 552.16L208.832 550.132L208.544 549.832C208.432 549.96 208.34 550.06 208.268 550.132L206.24 552.16L205.4 551.32L207.428 549.292ZM207.272 553.18H214.196V556.96H212.888V554.224H207.272V553.18ZM218.616 553.288C218.056 553.288 217.552 553.16 217.104 552.904C216.664 552.648 216.32 552.292 216.072 551.836C215.824 551.38 215.7 550.86 215.7 550.276C215.7 549.692 215.824 549.172 216.072 548.716C216.32 548.252 216.664 547.892 217.104 547.636C217.552 547.372 218.056 547.24 218.616 547.24C219.128 547.24 219.588 547.348 219.996 547.564C220.412 547.78 220.748 548.084 221.004 548.476C221.268 548.86 221.432 549.304 221.496 549.808H223.248V546.28H224.544V556.624H223.248V550.852H221.472C221.36 551.58 221.044 552.168 220.524 552.616C220.004 553.064 219.368 553.288 218.616 553.288ZM216.984 550.276C216.984 550.844 217.132 551.304 217.428 551.656C217.732 552 218.128 552.172 218.616 552.172C219.104 552.172 219.496 552 219.792 551.656C220.088 551.304 220.236 550.844 220.236 550.276C220.236 549.7 220.088 549.236 219.792 548.884C219.496 548.532 219.104 548.356 218.616 548.356C218.128 548.356 217.732 548.532 217.428 548.884C217.132 549.236 216.984 549.7 216.984 550.276ZM235.636 552.268V553.324H231.436V556.972H230.14V553.324H225.988V552.268H235.636ZM229.48 548.8C229.688 548.672 229.836 548.572 229.924 548.5C230.02 548.428 230.08 548.368 230.104 548.32C230.128 548.272 230.14 548.204 230.14 548.116V547.768H227.152V546.712H234.436V547.768H231.448V548.116C231.448 548.204 231.46 548.272 231.484 548.32C231.508 548.368 231.564 548.428 231.652 548.5C231.748 548.572 231.9 548.672 232.108 548.8L234.82 550.492L234.196 551.5L231.484 549.808C231.188 549.624 230.96 549.452 230.8 549.292C230.624 549.452 230.392 549.624 230.104 549.808L227.392 551.5L226.768 550.492L229.48 548.8ZM242.012 549.82V546.484H243.224V556.096H242.012V550.888H240.512V549.82H242.012ZM237.812 550.9C238.004 550.564 238.128 550.304 238.184 550.12C238.24 549.928 238.268 549.7 238.268 549.436V546.976H239.516V549.436C239.516 549.7 239.544 549.928 239.6 550.12C239.656 550.304 239.78 550.564 239.972 550.9L241.556 553.636L240.524 554.236L238.94 551.5L238.892 551.416L238.844 551.5L237.26 554.236L236.228 553.636L237.812 550.9ZM244.184 546.292H245.432V556.6H244.184V546.292ZM249.181 554.356V552.016C248.877 551.744 248.641 551.416 248.473 551.032C248.305 550.64 248.221 550.216 248.221 549.76C248.221 549.168 248.357 548.64 248.629 548.176C248.909 547.704 249.293 547.34 249.781 547.084C250.269 546.82 250.825 546.688 251.449 546.688C252.081 546.688 252.645 546.82 253.141 547.084C253.637 547.34 254.021 547.704 254.293 548.176C254.573 548.64 254.713 549.168 254.713 549.76C254.713 550.216 254.629 550.636 254.461 551.02C254.301 551.396 254.069 551.724 253.765 552.004V554.356H256.309V555.424H246.637V554.356H249.181ZM249.493 549.76C249.493 550.336 249.673 550.812 250.033 551.188C250.401 551.556 250.873 551.74 251.449 551.74C252.041 551.74 252.521 551.556 252.889 551.188C253.257 550.812 253.441 550.336 253.441 549.76C253.441 549.176 253.257 548.7 252.889 548.332C252.521 547.956 252.041 547.768 251.449 547.768C250.873 547.768 250.401 547.956 250.033 548.332C249.673 548.7 249.493 549.176 249.493 549.76ZM252.457 554.356V552.688C252.129 552.776 251.793 552.82 251.449 552.82C251.089 552.82 250.765 552.78 250.477 552.7V554.356H252.457ZM34.36 561.09V570.572H33.161V561.09H34.36ZM26.869 561.893H28.057V564.291H30.411V561.893H31.599V568.229H26.869V561.893ZM30.411 567.272V565.226H28.057V567.272H30.411ZM40.1609 564.896C39.6329 564.896 39.1635 564.815 38.7529 564.654C38.3422 564.485 38.0195 564.254 37.7849 563.961C37.5575 563.66 37.4439 563.319 37.4439 562.938C37.4439 562.557 37.5575 562.216 37.7849 561.915C38.0195 561.607 38.3422 561.369 38.7529 561.2C39.1635 561.031 39.6329 560.947 40.1609 560.947C40.6962 560.947 41.1729 561.031 41.5909 561.2C42.0089 561.369 42.3352 561.607 42.5699 561.915C42.8045 562.216 42.9219 562.557 42.9219 562.938C42.9219 563.319 42.8045 563.66 42.5699 563.961C42.3352 564.254 42.0089 564.485 41.5909 564.654C41.1729 564.815 40.6962 564.896 40.1609 564.896ZM35.7609 565.292H44.5939V566.227H42.3059V566.953H43.2409V569.285H38.2469V569.89H43.5269V570.803H37.0589V568.438H42.0749V567.855H37.0369V566.953H38.0489V566.227H35.7609V565.292ZM38.5989 562.938C38.5989 563.231 38.7419 563.47 39.0279 563.653C39.3212 563.836 39.7025 563.928 40.1719 563.928C40.6485 563.928 41.0335 563.836 41.3269 563.653C41.6202 563.47 41.7669 563.231 41.7669 562.938C41.7669 562.637 41.6165 562.392 41.3159 562.201C41.0225 562.01 40.6412 561.915 40.1719 561.915C39.7025 561.915 39.3212 562.01 39.0279 562.201C38.7419 562.392 38.5989 562.637 38.5989 562.938ZM41.1179 566.953V566.227H39.2259V566.953H41.1179ZM53.6287 561.101V570.55H52.4957V561.101H53.6287ZM45.2357 564.753C45.2357 564.218 45.3347 563.741 45.5327 563.323C45.7307 562.898 46.0057 562.568 46.3577 562.333C46.7097 562.091 47.1094 561.97 47.5567 561.97C48.1801 561.97 48.7007 562.186 49.1187 562.619C49.5367 563.052 49.7861 563.62 49.8667 564.324H50.5597V561.277H51.6817V570.088H50.5597V565.292H49.8557C49.7531 565.967 49.4964 566.506 49.0857 566.909C48.6751 567.312 48.1654 567.514 47.5567 567.514C47.1094 567.514 46.7097 567.397 46.3577 567.162C46.0057 566.927 45.7307 566.601 45.5327 566.183C45.3347 565.765 45.2357 565.288 45.2357 564.753ZM46.3577 564.753C46.3577 565.259 46.4677 565.67 46.6877 565.985C46.9077 566.293 47.1974 566.447 47.5567 566.447C47.9161 566.447 48.2057 566.293 48.4257 565.985C48.6531 565.67 48.7667 565.259 48.7667 564.753C48.7667 564.24 48.6531 563.825 48.4257 563.51C48.2057 563.195 47.9161 563.037 47.5567 563.037C47.1974 563.037 46.9077 563.195 46.6877 563.51C46.4677 563.825 46.3577 564.24 46.3577 564.753ZM61.6296 564.269V561.09H62.8176V570.572H61.6296V565.226H59.5946V564.269H61.6296ZM56.4596 565.281C56.6796 564.973 56.8189 564.742 56.8776 564.588C56.9436 564.427 56.9766 564.225 56.9766 563.983V561.728H58.1316V563.983C58.1316 564.225 58.1609 564.427 58.2196 564.588C58.2856 564.742 58.4286 564.973 58.6486 565.281L60.4746 567.789L59.5946 568.427L57.7686 565.919C57.6439 565.743 57.5743 565.64 57.5596 565.611L57.3396 565.919L55.5136 568.427L54.6336 567.789L56.4596 565.281ZM70.5046 568.383V566.788H67.9526V561.805H69.1406V563.345H73.0786V561.805H74.2666V566.788H71.7036V568.383H75.5536V569.362H66.6876V568.383H70.5046ZM73.0786 565.842V564.291H69.1406V565.842H73.0786ZM84.2805 561.09V570.572H83.0815V561.09H84.2805ZM76.4925 564.753C76.4925 564.218 76.6062 563.741 76.8335 563.323C77.0608 562.898 77.3762 562.568 77.7795 562.333C78.1828 562.091 78.6448 561.97 79.1655 561.97C79.6788 561.97 80.1335 562.091 80.5295 562.333C80.9328 562.568 81.2482 562.898 81.4755 563.323C81.7028 563.741 81.8165 564.218 81.8165 564.753C81.8165 565.288 81.7028 565.765 81.4755 566.183C81.2482 566.601 80.9328 566.927 80.5295 567.162C80.1335 567.397 79.6788 567.514 79.1655 567.514C78.6448 567.514 78.1828 567.397 77.7795 567.162C77.3762 566.927 77.0608 566.601 76.8335 566.183C76.6062 565.765 76.4925 565.288 76.4925 564.753ZM77.6585 564.753C77.6585 565.274 77.7942 565.695 78.0655 566.018C78.3442 566.333 78.7108 566.491 79.1655 566.491C79.6055 566.491 79.9612 566.333 80.2325 566.018C80.5112 565.695 80.6505 565.274 80.6505 564.753C80.6505 564.225 80.5112 563.8 80.2325 563.477C79.9612 563.154 79.6055 562.993 79.1655 562.993C78.7108 562.993 78.3442 563.154 78.0655 563.477C77.7942 563.8 77.6585 564.225 77.6585 564.753ZM93.7334 561.101V570.55H92.5344V561.101H93.7334ZM87.5184 565.105C87.7457 564.79 87.8887 564.562 87.9474 564.423C88.006 564.284 88.0354 564.1 88.0354 563.873V562.982H86.0884V562.014H91.1484V562.982H89.2014V563.873C89.2014 564.1 89.2307 564.284 89.2894 564.423C89.348 564.562 89.491 564.79 89.7184 565.105L91.5114 567.635L90.6094 568.273L88.8164 565.743C88.7504 565.662 88.6844 565.567 88.6184 565.457C88.5524 565.567 88.4864 565.662 88.4204 565.743L86.6274 568.273L85.7254 567.635L87.5184 565.105ZM100.408 566.128C99.917 566.128 99.4807 566.029 99.0994 565.831C98.718 565.633 98.4174 565.358 98.1974 565.006C97.9847 564.647 97.8784 564.24 97.8784 563.785C97.8784 563.33 97.9847 562.923 98.1974 562.564C98.4174 562.205 98.718 561.926 99.0994 561.728C99.4807 561.53 99.917 561.431 100.408 561.431C100.9 561.431 101.336 561.53 101.717 561.728C102.099 561.926 102.396 562.205 102.608 562.564C102.828 562.923 102.938 563.33 102.938 563.785C102.938 564.24 102.828 564.647 102.608 565.006C102.396 565.358 102.099 565.633 101.717 565.831C101.336 566.029 100.9 566.128 100.408 566.128ZM98.9124 566.975H100.078V569.736H102.124V570.759H98.9124V566.975ZM99.0444 563.785C99.0444 564.203 99.169 564.544 99.4184 564.808C99.675 565.065 100.005 565.193 100.408 565.193C100.812 565.193 101.138 565.065 101.387 564.808C101.637 564.544 101.761 564.203 101.761 563.785C101.761 563.36 101.637 563.019 101.387 562.762C101.138 562.505 100.812 562.377 100.408 562.377C100.005 562.377 99.675 562.509 99.4184 562.773C99.169 563.03 99.0444 563.367 99.0444 563.785ZM101.981 567.437H103.488V566.612H104.412V567.437H105.908V568.339H105.38C105.556 568.61 105.644 568.904 105.644 569.219C105.644 569.725 105.487 570.136 105.171 570.451C104.856 570.766 104.449 570.924 103.95 570.924C103.452 570.924 103.041 570.766 102.718 570.451C102.403 570.136 102.242 569.725 102.234 569.219C102.234 568.911 102.326 568.618 102.509 568.339H101.981V567.437ZM103.268 569.219C103.268 569.468 103.327 569.666 103.444 569.813C103.569 569.952 103.738 570.022 103.95 570.022C104.156 570.022 104.317 569.952 104.434 569.813C104.552 569.666 104.61 569.468 104.61 569.219C104.61 568.962 104.552 568.757 104.434 568.603C104.317 568.449 104.156 568.372 103.95 568.372C103.745 568.372 103.58 568.449 103.455 568.603C103.331 568.757 103.268 568.962 103.268 569.219ZM104.071 561.101H105.27V563.202H106.623V564.181H105.27V566.216H104.071V561.101ZM109.608 561.453V563.928H114.778V564.885H108.42V561.453H109.608ZM107.078 565.82H115.944V566.788H107.078V565.82ZM108.453 567.657H109.63V569.714H114.69V570.671H108.453V567.657ZM127.481 561.101V570.55H126.348V565.908H125.347V570.088H124.236V561.277H125.347V564.929H126.348V561.101H127.481ZM120.364 565.149C120.548 564.834 120.665 564.592 120.716 564.423C120.775 564.254 120.804 564.049 120.804 563.807V562.982H119.22V562.014H123.532V562.982H121.948V563.807C121.948 564.049 121.974 564.254 122.025 564.423C122.084 564.592 122.205 564.834 122.388 565.149L123.884 567.679L122.938 568.229L121.442 565.699L121.376 565.589L121.31 565.699L119.803 568.24L118.857 567.668L120.364 565.149ZM130.95 568.548V567.041H129.883V563.917H135.053V562.751H129.861V561.794H136.087V564.852H130.994V566.084H136.307V567.041H135.097V568.548H137.407V569.527H128.541V568.548H130.95ZM133.931 568.548V567.041H132.116V568.548H133.931ZM146.86 565.083V566.029H138.016V565.083H146.86ZM139.281 566.656H145.485V569.076H140.491V569.835H145.771V570.759H139.303V568.229H144.264V567.558H139.281V566.656ZM139.358 561.409H145.54V562.366H140.546V563.51H145.606V564.445H139.358V561.409ZM156.302 566.029V566.975H147.469V566.029H156.302ZM148.833 567.723H150.021V569.736H155.103V570.704H148.833V567.723ZM149.218 563.213C149.218 562.78 149.328 562.403 149.548 562.08C149.775 561.75 150.087 561.497 150.483 561.321C150.886 561.138 151.348 561.046 151.869 561.046C152.39 561.046 152.852 561.138 153.255 561.321C153.666 561.497 153.985 561.75 154.212 562.08C154.439 562.403 154.553 562.78 154.553 563.213C154.553 563.616 154.439 563.983 154.212 564.313C153.985 564.636 153.666 564.889 153.255 565.072C152.852 565.255 152.39 565.347 151.869 565.347C151.356 565.347 150.897 565.255 150.494 565.072C150.091 564.889 149.775 564.636 149.548 564.313C149.328 563.983 149.218 563.616 149.218 563.213ZM150.362 563.213C150.362 563.55 150.501 563.829 150.78 564.049C151.066 564.269 151.433 564.379 151.88 564.379C152.335 564.379 152.705 564.269 152.991 564.049C153.277 563.829 153.42 563.55 153.42 563.213C153.42 562.846 153.277 562.557 152.991 562.344C152.712 562.131 152.342 562.025 151.88 562.025C151.425 562.025 151.059 562.131 150.78 562.344C150.501 562.557 150.362 562.846 150.362 563.213ZM167.069 561.101V564.94H168.565V565.941H167.069V570.55H165.87V561.101H167.069ZM161.173 565.281C161.393 564.973 161.532 564.742 161.591 564.588C161.657 564.427 161.69 564.225 161.69 563.983V561.728H162.845V563.983C162.845 564.225 162.874 564.427 162.933 564.588C162.999 564.742 163.142 564.973 163.362 565.281L165.166 567.789L164.264 568.427L162.46 565.919C162.35 565.75 162.288 565.655 162.273 565.633L162.075 565.919L160.282 568.427L159.38 567.789L161.173 565.281ZM176.544 561.09V564.863H178.04V565.864H176.544V570.572H175.367V561.09H176.544ZM169.317 561.959H173.849V565.633H170.527V567.459H174.542V568.449H169.339V564.676H172.672V562.916H169.317V561.959ZM186.481 561.112V567.855H185.271V561.112H186.481ZM180.343 564.115C180.555 563.895 180.687 563.737 180.739 563.642C180.79 563.539 180.816 563.411 180.816 563.257V562.718H178.803V561.75H183.863V562.718H181.949V563.257C181.949 563.418 181.974 563.547 182.026 563.642C182.077 563.737 182.209 563.895 182.422 564.115L184.281 566.04L183.489 566.81L181.63 564.885L181.377 564.61C181.369 564.625 181.289 564.716 181.135 564.885L179.276 566.81L178.484 566.04L180.343 564.115ZM180.277 567.547H181.465V569.725H186.569V570.693H180.277V567.547ZM197.325 564.731H195.598V563.752H197.325V561.101H198.524V567.393H197.325V564.731ZM190.582 565.721C191.227 565.596 191.814 565.384 192.342 565.083C192.877 564.782 193.302 564.416 193.618 563.983C193.933 563.55 194.091 563.092 194.091 562.608H190.813V561.629H195.213V562.586V562.608C195.213 563.29 195.004 563.928 194.586 564.522C194.175 565.109 193.629 565.604 192.947 566.007C192.272 566.403 191.55 566.674 190.78 566.821L190.582 565.721ZM194.179 568.504C194.435 568.335 194.593 568.218 194.652 568.152C194.71 568.079 194.74 567.994 194.74 567.899V566.799H195.895V567.899C195.895 567.994 195.924 568.079 195.983 568.152C196.049 568.218 196.21 568.335 196.467 568.504L198.711 570.033L198.095 570.935L195.851 569.406C195.638 569.267 195.462 569.127 195.323 568.988C195.161 569.135 194.985 569.274 194.795 569.406L192.562 570.935L191.946 570.033L194.179 568.504ZM207.988 561.09V570.572H206.789V561.09H207.988ZM200.2 564.753C200.2 564.218 200.313 563.741 200.541 563.323C200.768 562.898 201.083 562.568 201.487 562.333C201.89 562.091 202.352 561.97 202.873 561.97C203.386 561.97 203.841 562.091 204.237 562.333C204.64 562.568 204.955 562.898 205.183 563.323C205.41 563.741 205.524 564.218 205.524 564.753C205.524 565.288 205.41 565.765 205.183 566.183C204.955 566.601 204.64 566.927 204.237 567.162C203.841 567.397 203.386 567.514 202.873 567.514C202.352 567.514 201.89 567.397 201.487 567.162C201.083 566.927 200.768 566.601 200.541 566.183C200.313 565.765 200.2 565.288 200.2 564.753ZM201.366 564.753C201.366 565.274 201.501 565.695 201.773 566.018C202.051 566.333 202.418 566.491 202.873 566.491C203.313 566.491 203.668 566.333 203.94 566.018C204.218 565.695 204.358 565.274 204.358 564.753C204.358 564.225 204.218 563.8 203.94 563.477C203.668 563.154 203.313 562.993 202.873 562.993C202.418 562.993 202.051 563.154 201.773 563.477C201.501 563.8 201.366 564.225 201.366 564.753ZM219.47 561.101V564.885H220.955V565.875H219.47V570.55H218.271V561.101H219.47ZM211.891 564.753C211.891 564.218 212.004 563.741 212.232 563.323C212.459 562.898 212.774 562.568 213.178 562.333C213.588 562.091 214.05 561.97 214.564 561.97C215.077 561.97 215.535 562.091 215.939 562.333C216.342 562.568 216.657 562.898 216.885 563.323C217.112 563.741 217.226 564.218 217.226 564.753C217.226 565.288 217.112 565.765 216.885 566.183C216.657 566.601 216.342 566.927 215.939 567.162C215.535 567.397 215.077 567.514 214.564 567.514C214.05 567.514 213.588 567.397 213.178 567.162C212.774 566.927 212.459 566.601 212.232 566.183C212.004 565.765 211.891 565.288 211.891 564.753ZM213.068 564.753C213.068 565.274 213.203 565.695 213.475 566.018C213.753 566.333 214.116 566.491 214.564 566.491C215.011 566.491 215.37 566.333 215.642 566.018C215.913 565.695 216.049 565.274 216.049 564.753C216.049 564.225 215.913 563.8 215.642 563.477C215.37 563.154 215.011 562.993 214.564 562.993C214.116 562.993 213.753 563.154 213.475 563.477C213.203 563.8 213.068 564.225 213.068 564.753ZM229.406 561.101V566.293H228.196V561.101H229.406ZM221.871 561.607H223.059V565.083H226.865V566.062H221.871V561.607ZM223.268 566.733H224.445V567.822H228.218V566.733H229.406V570.77H223.268V566.733ZM228.218 569.802V568.757H224.445V569.802H228.218ZM238.881 561.101V570.55H237.704V561.101H238.881ZM231.401 561.97H232.589V567.173H236.406V568.163H231.401V561.97ZM247.861 561.09V564.808H249.346V565.798H247.861V570.572H246.662V561.09H247.861ZM240.634 562.003H245.188V562.982H241.822V567.173H245.628V568.163H240.634V562.003ZM251.858 567.866H250.769L250.56 561.706H252.045L251.858 567.866ZM250.626 569.571C250.626 569.373 250.688 569.212 250.813 569.087C250.945 568.955 251.114 568.889 251.319 568.889C251.517 568.889 251.678 568.955 251.803 569.087C251.928 569.212 251.99 569.373 251.99 569.571C251.99 569.769 251.928 569.93 251.803 570.055C251.678 570.187 251.517 570.253 251.319 570.253C251.114 570.253 250.945 570.187 250.813 570.055C250.688 569.93 250.626 569.769 250.626 569.571Z" fill="#B6B6B6"/>
<g filter="url(#filter0_d_384_6115)">
<rect x="20" y="588" width="320" height="56" rx="9" fill="#F5F3F2"/>
</g>
<rect x="36" y="600" width="32" height="32" rx="4" fill="#F9ED69"/>
<path d="M81.376 619.054V616.52H82.552V619.054H87.536V620.048H76.392V619.054H81.376ZM80.466 613.58C80.7367 613.393 80.9327 613.244 81.054 613.132C81.1753 613.011 81.25 612.899 81.278 612.796C81.3153 612.693 81.334 612.558 81.334 612.39V610.64H82.608V612.39C82.608 612.539 82.6267 612.661 82.664 612.754C82.7013 612.847 82.7807 612.955 82.902 613.076C83.0233 613.197 83.224 613.37 83.504 613.594L86.682 616.156L86.01 616.996L82.832 614.434C82.4867 614.154 82.2067 613.893 81.992 613.65C81.7773 613.921 81.4833 614.187 81.11 614.448L77.946 616.996L77.274 616.156L80.466 613.58ZM99.4575 616.744V617.71H94.4455V622.05H93.2835V617.71H88.3275V616.744H99.4575ZM92.4155 612.74C92.7049 612.553 92.9009 612.423 93.0035 612.348C93.1155 612.264 93.1855 612.194 93.2135 612.138C93.2415 612.082 93.2555 612.003 93.2555 611.9V611.256H89.6995V610.276H98.0435V611.256H94.4875V611.9C94.4875 612.003 94.5015 612.082 94.5295 612.138C94.5575 612.194 94.6229 612.264 94.7255 612.348C94.8375 612.423 95.0382 612.553 95.3275 612.74L98.5055 614.812L97.9175 615.708L94.7675 613.636C94.3942 613.403 94.0955 613.174 93.8715 612.95C93.6475 613.174 93.3489 613.403 92.9755 613.636L89.8255 615.708L89.2375 614.812L92.4155 612.74Z" fill="#414042"/>
<rect x="286.667" y="602.667" width="26.6666" height="26.6666" rx="5.33332" fill="#3C3C43" fill-opacity="0.18"/>
<path d="M294 616.933L297.81 620.667L306 611.333" stroke="white" stroke-width="2.66666" stroke-linecap="round" stroke-linejoin="round"/>
<g filter="url(#filter1_d_384_6115)">
<rect x="20" y="660" width="320" height="56" rx="9" fill="#F5F3F2"/>
</g>
<rect x="36" y="672" width="32" height="32" rx="4" fill="#F08A5D"/>
<path d="M80.886 687.064V685.622H82.062V687.064H87.494V688.002H76.406V687.064H80.886ZM77.918 684.068H84.344V683.214H77.918V682.248H85.548V686.336H84.344V685.034H77.918V684.068ZM78.03 689.01H85.744V691.852H79.248V692.944H86.122V693.868H78.072V690.984H84.568V689.92H78.03V689.01ZM97.8195 681.73V686.602H99.8075V687.61H97.8195V693.644H96.6435V681.73H97.8195ZM88.8035 682.892H94.5015V687.316H90.0075V689.906H95.4255V690.886H88.8455V686.35H93.3395V683.844H88.8035V682.892Z" fill="#414042"/>
<rect x="286.667" y="674.667" width="26.6666" height="26.6666" rx="5.33332" fill="#3C3C43" fill-opacity="0.18"/>
<path d="M294 688.933L297.81 692.667L306 683.333" stroke="white" stroke-width="2.66666" stroke-linecap="round" stroke-linejoin="round"/>
<g filter="url(#filter2_d_384_6115)">
<rect x="20" y="732" width="320" height="56" rx="9" fill="#F5F3F2"/>
</g>
<rect x="36" y="744" width="32" height="32" rx="4" fill="#B83B5E"/>
<path d="M85.856 754.85V755.816H79.248V757.37H85.856V758.336H79.248V759.904H85.856V760.87H82.538V763.138H87.536V764.104H76.392V763.138H81.362V760.87H78.058V754.85H85.856ZM98.4215 761.458V766.064H97.2315V762.438H90.6095V761.458H98.4215ZM89.0695 754.43H90.2455V758.896H95.3835V759.876H89.0695V754.43ZM97.2315 753.758H98.4215V760.856H97.2315V753.758ZM104.239 759.554C103.651 759.554 103.124 759.437 102.657 759.204C102.2 758.961 101.84 758.63 101.579 758.21C101.327 757.79 101.201 757.309 101.201 756.768C101.201 756.227 101.327 755.746 101.579 755.326C101.84 754.897 102.2 754.565 102.657 754.332C103.124 754.089 103.651 753.968 104.239 753.968C104.836 753.968 105.368 754.089 105.835 754.332C106.311 754.565 106.68 754.897 106.941 755.326C107.212 755.746 107.347 756.227 107.347 756.768C107.347 757.309 107.212 757.79 106.941 758.21C106.68 758.63 106.311 758.961 105.835 759.204C105.368 759.437 104.836 759.554 104.239 759.554ZM100.417 760.17H107.921V761.15H104.729V765.252H103.553V761.15H100.417V760.17ZM102.349 756.768C102.349 757.291 102.526 757.72 102.881 758.056C103.236 758.392 103.688 758.56 104.239 758.56C104.818 758.56 105.289 758.392 105.653 758.056C106.026 757.72 106.213 757.291 106.213 756.768C106.213 756.245 106.026 755.816 105.653 755.48C105.289 755.135 104.818 754.962 104.239 754.962C103.688 754.962 103.236 755.135 102.881 755.48C102.526 755.816 102.349 756.245 102.349 756.768ZM106.437 762.13H109.195V753.744H110.385V765.644H109.195V763.068H106.437V762.13ZM122.335 753.73V765.644H121.159V759.078H118.891V758.126H121.159V753.73H122.335ZM112.689 754.906H118.429V755.9H113.851V758.126H118.037V759.148H113.851V761.542H118.723V762.522H112.689V754.906Z" fill="#414042"/>
<rect x="286.667" y="746.667" width="26.6666" height="26.6666" rx="5.33332" fill="#3C3C43" fill-opacity="0.18"/>
<path d="M294 760.933L297.81 764.667L306 755.333" stroke="white" stroke-width="2.66666" stroke-linecap="round" stroke-linejoin="round"/>
<rect y="262" width="362" height="227" fill="#24244E"/>
<path d="M21.311 10.267C21.9637 10.267 22.4807 10.4027 22.862 10.674C23.2433 10.9453 23.5147 11.3707 23.676 11.95C23.8447 12.5293 23.929 13.281 23.929 14.205C23.929 15.129 23.8447 15.8807 23.676 16.46C23.5147 17.0393 23.2433 17.4647 22.862 17.736C22.4807 18.0073 21.9637 18.143 21.311 18.143C20.6657 18.143 20.1523 18.0073 19.771 17.736C19.3897 17.4647 19.1147 17.0393 18.946 16.46C18.7847 15.8807 18.704 15.129 18.704 14.205C18.704 13.281 18.7847 12.5293 18.946 11.95C19.1147 11.3707 19.3897 10.9453 19.771 10.674C20.1523 10.4027 20.6657 10.267 21.311 10.267ZM21.311 11.114C20.9957 11.114 20.7317 11.1727 20.519 11.29C20.3063 11.4 20.134 11.576 20.002 11.818C19.8773 12.06 19.7857 12.379 19.727 12.775C19.6757 13.1637 19.65 13.6403 19.65 14.205C19.65 14.7623 19.6757 15.239 19.727 15.635C19.7857 16.031 19.8773 16.35 20.002 16.592C20.134 16.834 20.3063 17.0137 20.519 17.131C20.7317 17.241 20.9957 17.296 21.311 17.296C21.6263 17.296 21.8903 17.241 22.103 17.131C22.323 17.0137 22.4953 16.834 22.62 16.592C22.752 16.35 22.8437 16.031 22.895 15.635C22.9537 15.239 22.983 14.7623 22.983 14.205C22.983 13.6403 22.9537 13.1637 22.895 12.775C22.8437 12.379 22.752 12.06 22.62 11.818C22.4953 11.576 22.323 11.4 22.103 11.29C21.8903 11.1727 21.6263 11.114 21.311 11.114ZM27.6639 10.278C28.2139 10.278 28.6539 10.344 28.9839 10.476C29.3213 10.6007 29.5743 10.8097 29.7429 11.103C29.9116 11.3963 30.0216 11.7887 30.0729 12.28C30.1316 12.7713 30.1609 13.3837 30.1609 14.117C30.1609 14.9677 30.1059 15.657 29.9959 16.185C29.8859 16.713 29.7136 17.12 29.4789 17.406C29.2516 17.6847 28.9509 17.8753 28.5769 17.978C28.2029 18.0807 27.7519 18.132 27.2239 18.132C27.0553 18.132 26.8243 18.1247 26.5309 18.11C26.2449 18.0953 25.9296 18.0477 25.5849 17.967L25.6729 17.252C25.8489 17.2667 26.0066 17.2777 26.1459 17.285C26.2853 17.2923 26.4356 17.296 26.5969 17.296C26.7656 17.296 26.9746 17.296 27.2239 17.296C27.6053 17.296 27.9243 17.252 28.1809 17.164C28.4376 17.076 28.6429 16.9183 28.7969 16.691C28.9509 16.4563 29.0609 16.13 29.1269 15.712C29.1929 15.294 29.2259 14.755 29.2259 14.095C29.2259 13.5157 29.2113 13.0353 29.1819 12.654C29.1599 12.2653 29.1013 11.9573 29.0059 11.73C28.9106 11.5027 28.7566 11.3413 28.5439 11.246C28.3313 11.1507 28.0343 11.103 27.6529 11.103C27.2349 11.103 26.9159 11.1727 26.6959 11.312C26.4833 11.4513 26.3403 11.653 26.2669 11.917C26.1936 12.181 26.1569 12.5037 26.1569 12.885C26.1569 13.2517 26.1936 13.5633 26.2669 13.82C26.3476 14.0693 26.4906 14.26 26.6959 14.392C26.9013 14.524 27.1836 14.59 27.5429 14.59C27.7849 14.59 28.0049 14.5607 28.2029 14.502C28.4083 14.436 28.6173 14.3297 28.8299 14.183C29.0426 14.029 29.2883 13.82 29.5669 13.556L29.6109 14.029C29.3763 14.3737 29.1453 14.645 28.9179 14.843C28.6979 15.0337 28.4596 15.1693 28.2029 15.25C27.9463 15.3233 27.6419 15.36 27.2899 15.36C26.7693 15.36 26.3586 15.2537 26.0579 15.041C25.7573 14.8283 25.5446 14.535 25.4199 14.161C25.2953 13.787 25.2329 13.3617 25.2329 12.885C25.2329 12.3057 25.3063 11.8253 25.4529 11.444C25.6069 11.0553 25.8599 10.7657 26.2119 10.575C26.5713 10.377 27.0553 10.278 27.6639 10.278ZM32.3419 13.16C32.4739 13.16 32.5655 13.1857 32.6169 13.237C32.6682 13.2883 32.6939 13.38 32.6939 13.512V14.106C32.6939 14.238 32.6682 14.3297 32.6169 14.381C32.5655 14.4323 32.4739 14.458 32.3419 14.458H32.0339C31.9092 14.458 31.8175 14.4323 31.7589 14.381C31.7075 14.3297 31.6819 14.238 31.6819 14.106V13.512C31.6819 13.38 31.7075 13.2883 31.7589 13.237C31.8175 13.1857 31.9092 13.16 32.0339 13.16H32.3419ZM32.3419 16.702C32.4739 16.702 32.5655 16.7277 32.6169 16.779C32.6682 16.8303 32.6939 16.922 32.6939 17.054V17.648C32.6939 17.78 32.6682 17.8717 32.6169 17.923C32.5655 17.9743 32.4739 18 32.3419 18H32.0339C31.9092 18 31.8175 17.9743 31.7589 17.923C31.7075 17.8717 31.6819 17.78 31.6819 17.648V17.054C31.6819 16.922 31.7075 16.8303 31.7589 16.779C31.8175 16.7277 31.9092 16.702 32.0339 16.702H32.3419ZM36.6685 10.41V18H35.7005V11.983C35.7005 11.873 35.7041 11.763 35.7115 11.653C35.7188 11.543 35.7335 11.433 35.7555 11.323L33.8965 11.906L33.7645 11.191L35.7005 10.41H36.6685ZM41.2493 10.3C41.7333 10.3 42.1293 10.3403 42.4373 10.421C42.7526 10.5017 42.9983 10.6227 43.1743 10.784C43.3576 10.9453 43.4823 11.1543 43.5483 11.411C43.6216 11.6603 43.6583 11.9573 43.6583 12.302C43.6583 12.632 43.6216 12.9217 43.5483 13.171C43.4749 13.4203 43.3576 13.622 43.1963 13.776C43.0423 13.9227 42.8369 14.0107 42.5803 14.04V14.084C42.9029 14.1133 43.1523 14.216 43.3283 14.392C43.5116 14.5607 43.6399 14.7917 43.7133 15.085C43.7866 15.371 43.8233 15.712 43.8233 16.108C43.8233 16.57 43.7536 16.9513 43.6143 17.252C43.4749 17.5453 43.2183 17.7617 42.8443 17.901C42.4776 18.0403 41.9459 18.11 41.2493 18.11C40.5673 18.11 40.0393 18.0403 39.6653 17.901C39.2913 17.7617 39.0309 17.5453 38.8843 17.252C38.7376 16.9513 38.6643 16.57 38.6643 16.108C38.6643 15.712 38.7009 15.371 38.7743 15.085C38.8549 14.7917 38.9869 14.5607 39.1703 14.392C39.3536 14.216 39.6029 14.1133 39.9183 14.084V14.04C39.6616 14.0107 39.4526 13.9227 39.2913 13.776C39.1299 13.622 39.0126 13.4203 38.9393 13.171C38.8659 12.9217 38.8293 12.632 38.8293 12.302C38.8293 11.9573 38.8659 11.6603 38.9393 11.411C39.0126 11.1543 39.1373 10.9453 39.3133 10.784C39.4966 10.6227 39.7423 10.5017 40.0503 10.421C40.3656 10.3403 40.7653 10.3 41.2493 10.3ZM41.2713 14.447C40.9266 14.447 40.6443 14.469 40.4243 14.513C40.2043 14.557 40.0319 14.634 39.9073 14.744C39.7826 14.8467 39.6946 14.9933 39.6433 15.184C39.5993 15.3747 39.5773 15.6167 39.5773 15.91C39.5773 16.2473 39.6213 16.5187 39.7093 16.724C39.8046 16.922 39.9733 17.065 40.2153 17.153C40.4646 17.2337 40.8129 17.274 41.2603 17.274C41.7076 17.274 42.0486 17.2337 42.2833 17.153C42.5179 17.065 42.6793 16.922 42.7673 16.724C42.8553 16.5187 42.8993 16.2473 42.8993 15.91C42.8993 15.6093 42.8736 15.3637 42.8223 15.173C42.7783 14.9823 42.6976 14.8357 42.5803 14.733C42.4629 14.623 42.2979 14.5497 42.0853 14.513C41.8726 14.469 41.6013 14.447 41.2713 14.447ZM41.2603 11.081C40.8423 11.081 40.5233 11.1213 40.3033 11.202C40.0833 11.2827 39.9293 11.4183 39.8413 11.609C39.7606 11.7997 39.7203 12.06 39.7203 12.39C39.7203 12.7347 39.7606 13.0023 39.8413 13.193C39.9293 13.3763 40.0833 13.5047 40.3033 13.578C40.5306 13.644 40.8533 13.677 41.2713 13.677C41.6966 13.677 42.0156 13.6403 42.2283 13.567C42.4483 13.4937 42.5949 13.3653 42.6683 13.182C42.7416 12.9913 42.7783 12.7273 42.7783 12.39C42.7783 12.06 42.7379 11.7997 42.6573 11.609C42.5839 11.4183 42.4373 11.2827 42.2173 11.202C41.9973 11.1213 41.6783 11.081 41.2603 11.081Z" fill="white"/>
<path d="M58.5022 10.4531C57.567 9.51562 56.3214 9 54.9978 9C52.2656 9 50.0424 11.2232 50.0424 13.9554C50.0424 14.8281 50.2701 15.6808 50.7031 16.433L50 19L52.6272 18.3103C53.3504 18.7054 54.1652 18.9129 54.9955 18.9129H54.9978C57.7277 18.9129 60 16.6897 60 13.9576C60 12.6339 59.4375 11.3906 58.5022 10.4531ZM54.9978 18.0781C54.2567 18.0781 53.5312 17.8795 52.8996 17.5045L52.75 17.4152L51.192 17.8237L51.6071 16.3036L51.5089 16.1473C51.096 15.4911 50.8795 14.7344 50.8795 13.9554C50.8795 11.6853 52.7277 9.83705 55 9.83705C56.1004 9.83705 57.1339 10.2656 57.9107 11.0446C58.6875 11.8237 59.1652 12.8571 59.1629 13.9576C59.1629 16.2299 57.2679 18.0781 54.9978 18.0781ZM57.2567 14.9933C57.1339 14.9308 56.5246 14.6317 56.4107 14.5915C56.2969 14.5491 56.2143 14.529 56.1317 14.654C56.0491 14.779 55.8125 15.0558 55.7388 15.1406C55.6674 15.2232 55.5938 15.2344 55.471 15.1719C54.7433 14.808 54.2656 14.5223 53.7857 13.6987C53.6585 13.4799 53.9129 13.4955 54.1496 13.0223C54.1897 12.9397 54.1696 12.8683 54.1384 12.8058C54.1071 12.7433 53.8594 12.1339 53.7567 11.8862C53.6563 11.6451 53.5536 11.6786 53.4777 11.6741C53.4063 11.6696 53.3237 11.6696 53.2411 11.6696C53.1585 11.6696 53.0246 11.7009 52.9107 11.8237C52.7969 11.9487 52.4777 12.2478 52.4777 12.8571C52.4777 13.4665 52.9219 14.0558 52.9821 14.1384C53.0446 14.221 53.8549 15.471 55.0982 16.0089C55.8839 16.3482 56.192 16.3772 56.5848 16.3192C56.8237 16.2835 57.317 16.0201 57.4196 15.7299C57.5223 15.4397 57.5223 15.192 57.4911 15.1406C57.4621 15.0848 57.3795 15.0536 57.2567 14.9933Z" fill="white"/>
<path d="M265.988 18.975C265.371 18.975 264.79 18.8583 264.244 18.625C263.698 18.3916 263.223 18.0729 262.819 17.6687C262.415 17.2646 262.094 16.7896 261.856 16.2437C261.619 15.6979 261.5 15.1136 261.5 14.4908C261.5 13.868 261.619 13.2847 261.856 12.7408C262.094 12.1969 262.415 11.7208 262.819 11.3125C263.223 10.9041 263.698 10.5833 264.244 10.35C264.79 10.1166 265.371 9.99998 265.988 9.99998C266.604 9.99998 267.185 10.1166 267.731 10.35C268.277 10.5833 268.754 10.9041 269.163 11.3125C269.571 11.7208 269.892 12.1969 270.125 12.7408C270.358 13.2847 270.475 13.868 270.475 14.4908C270.475 15.1136 270.358 15.6979 270.125 16.2437C269.892 16.7896 269.571 17.2646 269.163 17.6687C268.754 18.0729 268.277 18.3916 267.731 18.625C267.185 18.8583 266.604 18.975 265.988 18.975ZM267.5 16.525L268.025 16L266.4 14.375V12H265.65V14.675L267.5 16.525ZM262.675 9.16248L263.2 9.68748L261.15 11.6625L260.625 11.1375L262.675 9.16248ZM269.3 9.16248L271.35 11.1375L270.825 11.6625L268.775 9.68748L269.3 9.16248ZM265.988 18.225C267.029 18.225 267.912 17.8623 268.637 17.1369C269.363 16.4116 269.725 15.5282 269.725 14.4869C269.725 13.4456 269.362 12.5625 268.637 11.8375C267.912 11.1125 267.028 10.75 265.987 10.75C264.946 10.75 264.062 11.1127 263.338 11.838C262.613 12.5634 262.25 13.4467 262.25 14.488C262.25 15.5293 262.613 16.4125 263.338 17.1375C264.063 17.8625 264.947 18.225 265.988 18.225Z" fill="white"/>
<g clip-path="url(#clip1_384_6115)">
<path d="M282 18.5L276 12.5C276.825 11.7167 277.746 11.1042 278.763 10.6625C279.779 10.2208 280.858 10 282 10C283.142 10 284.221 10.2208 285.238 10.6625C286.254 11.1042 287.175 11.7167 288 12.5L282 18.5Z" fill="white"/>
</g>
<path d="M293.375 13.75L302.542 8.75V13.75H293.375ZM297.099 13.375H301.854V9.65L297.099 12.2438V13.375Z" fill="white"/>
<g clip-path="url(#clip2_384_6115)">
<path d="M292.905 19.5L302.072 14.5V19.5H292.905ZM294.555 19.125H301.384V15.4L294.555 19.125Z" fill="white"/>
</g>
<path d="M311 19C310.858 19 310.74 18.9521 310.644 18.8562C310.548 18.7604 310.5 18.6417 310.5 18.5V10.5C310.5 10.3583 310.548 10.2396 310.644 10.1438C310.74 10.0479 310.858 10 311 10H312V9H314V10H315C315.142 10 315.26 10.0479 315.356 10.1438C315.452 10.2396 315.5 10.3583 315.5 10.5V18.5C315.5 18.6417 315.452 18.7604 315.356 18.8562C315.26 18.9521 315.142 19 315 19H311Z" fill="white"/>
<path d="M323.204 10.3C323.688 10.3 324.084 10.3403 324.392 10.421C324.708 10.5017 324.953 10.6227 325.129 10.784C325.313 10.9453 325.437 11.1543 325.503 11.411C325.577 11.6603 325.613 11.9573 325.613 12.302C325.613 12.632 325.577 12.9217 325.503 13.171C325.43 13.4203 325.313 13.622 325.151 13.776C324.997 13.9227 324.792 14.0107 324.535 14.04V14.084C324.858 14.1133 325.107 14.216 325.283 14.392C325.467 14.5607 325.595 14.7917 325.668 15.085C325.742 15.371 325.778 15.712 325.778 16.108C325.778 16.57 325.709 16.9513 325.569 17.252C325.43 17.5453 325.173 17.7617 324.799 17.901C324.433 18.0403 323.901 18.11 323.204 18.11C322.522 18.11 321.994 18.0403 321.62 17.901C321.246 17.7617 320.986 17.5453 320.839 17.252C320.693 16.9513 320.619 16.57 320.619 16.108C320.619 15.712 320.656 15.371 320.729 15.085C320.81 14.7917 320.942 14.5607 321.125 14.392C321.309 14.216 321.558 14.1133 321.873 14.084V14.04C321.617 14.0107 321.408 13.9227 321.246 13.776C321.085 13.622 320.968 13.4203 320.894 13.171C320.821 12.9217 320.784 12.632 320.784 12.302C320.784 11.9573 320.821 11.6603 320.894 11.411C320.968 11.1543 321.092 10.9453 321.268 10.784C321.452 10.6227 321.697 10.5017 322.005 10.421C322.321 10.3403 322.72 10.3 323.204 10.3ZM323.226 14.447C322.882 14.447 322.599 14.469 322.379 14.513C322.159 14.557 321.987 14.634 321.862 14.744C321.738 14.8467 321.65 14.9933 321.598 15.184C321.554 15.3747 321.532 15.6167 321.532 15.91C321.532 16.2473 321.576 16.5187 321.664 16.724C321.76 16.922 321.928 17.065 322.17 17.153C322.42 17.2337 322.768 17.274 323.215 17.274C323.663 17.274 324.004 17.2337 324.238 17.153C324.473 17.065 324.634 16.922 324.722 16.724C324.81 16.5187 324.854 16.2473 324.854 15.91C324.854 15.6093 324.829 15.3637 324.777 15.173C324.733 14.9823 324.653 14.8357 324.535 14.733C324.418 14.623 324.253 14.5497 324.04 14.513C323.828 14.469 323.556 14.447 323.226 14.447ZM323.215 11.081C322.797 11.081 322.478 11.1213 322.258 11.202C322.038 11.2827 321.884 11.4183 321.796 11.609C321.716 11.7997 321.675 12.06 321.675 12.39C321.675 12.7347 321.716 13.0023 321.796 13.193C321.884 13.3763 322.038 13.5047 322.258 13.578C322.486 13.644 322.808 13.677 323.226 13.677C323.652 13.677 323.971 13.6403 324.183 13.567C324.403 13.4937 324.55 13.3653 324.623 13.182C324.697 12.9913 324.733 12.7273 324.733 12.39C324.733 12.06 324.693 11.7997 324.612 11.609C324.539 11.4183 324.392 11.2827 324.172 11.202C323.952 11.1213 323.633 11.081 323.215 11.081ZM331.261 10.41C331.415 10.41 331.536 10.4393 331.624 10.498C331.712 10.5493 331.767 10.6263 331.789 10.729C331.818 10.8243 331.811 10.9417 331.767 11.081L329.402 18H328.434L330.568 11.796C330.605 11.6933 330.641 11.598 330.678 11.51C330.715 11.4147 330.755 11.323 330.799 11.235H327.015L326.971 10.41H331.261ZM334.448 10.267C334.888 10.267 335.236 10.344 335.493 10.498C335.757 10.6447 335.944 10.883 336.054 11.213C336.164 11.543 336.219 11.9793 336.219 12.522C336.219 13.0573 336.164 13.49 336.054 13.82C335.944 14.15 335.757 14.392 335.493 14.546C335.236 14.7 334.888 14.777 334.448 14.777C334.015 14.777 333.667 14.7 333.403 14.546C333.146 14.392 332.963 14.15 332.853 13.82C332.743 13.49 332.688 13.0573 332.688 12.522C332.688 11.9793 332.743 11.543 332.853 11.213C332.963 10.883 333.146 10.6447 333.403 10.498C333.667 10.344 334.015 10.267 334.448 10.267ZM334.448 10.861C334.184 10.861 333.975 10.916 333.821 11.026C333.674 11.1287 333.568 11.301 333.502 11.543C333.436 11.785 333.403 12.1113 333.403 12.522C333.403 12.9327 333.436 13.259 333.502 13.501C333.568 13.743 333.674 13.919 333.821 14.029C333.975 14.1317 334.184 14.183 334.448 14.183C334.719 14.183 334.928 14.1317 335.075 14.029C335.229 13.919 335.335 13.743 335.394 13.501C335.46 13.259 335.493 12.9327 335.493 12.522C335.493 12.1113 335.46 11.785 335.394 11.543C335.335 11.301 335.229 11.1287 335.075 11.026C334.928 10.916 334.719 10.861 334.448 10.861ZM339.86 10.41L334.943 18H334.283L339.2 10.41H339.86ZM339.717 13.6C340.157 13.6 340.505 13.677 340.762 13.831C341.019 13.985 341.202 14.227 341.312 14.557C341.422 14.8797 341.477 15.3087 341.477 15.844C341.477 16.3793 341.422 16.8157 341.312 17.153C341.202 17.483 341.019 17.725 340.762 17.879C340.505 18.0257 340.157 18.099 339.717 18.099C339.284 18.099 338.936 18.0257 338.672 17.879C338.415 17.725 338.232 17.483 338.122 17.153C338.012 16.8157 337.957 16.3793 337.957 15.844C337.957 15.3087 338.012 14.8797 338.122 14.557C338.232 14.227 338.415 13.985 338.672 13.831C338.936 13.677 339.284 13.6 339.717 13.6ZM339.706 14.194C339.442 14.194 339.233 14.2453 339.079 14.348C338.925 14.4507 338.819 14.623 338.76 14.865C338.701 15.107 338.672 15.4333 338.672 15.844C338.672 16.2547 338.701 16.5847 338.76 16.834C338.819 17.076 338.925 17.252 339.079 17.362C339.233 17.4647 339.442 17.516 339.706 17.516C339.977 17.516 340.186 17.4647 340.333 17.362C340.487 17.252 340.597 17.076 340.663 16.834C340.729 16.5847 340.762 16.2547 340.762 15.844C340.762 15.4333 340.729 15.107 340.663 14.865C340.597 14.623 340.487 14.4507 340.333 14.348C340.186 14.2453 339.977 14.194 339.706 14.194Z" fill="white"/>
<path d="M274.307 77.3245L342 51.0001L360 76.0001L360 121L360 157.5L360 197L294.785 105.98L274.307 77.3245Z" fill="#181839" fill-opacity="0.4"/>
<rect x="272" y="48" width="72" height="32" rx="8" fill="#F5CC37"/>
<g filter="url(#filter3_d_384_6115)">
<path d="M295.715 58.1823V62.279H297.351V63.3699H295.715V68.6303H294.394V58.1823H295.715ZM287.751 59.1883H292.769V60.267H289.061V64.7517H293.254V65.8304H287.751V59.1883ZM306.058 65.091V68.8484H299.173V65.091H306.058ZM297.755 63.2972H307.488V64.3517H297.755V63.2972ZM299.682 60.4367C299.682 59.968 299.804 59.5559 300.046 59.2004C300.297 58.8449 300.64 58.5701 301.076 58.3762C301.521 58.1823 302.03 58.0853 302.604 58.0853C303.185 58.0853 303.698 58.1823 304.143 58.3762C304.595 58.5701 304.947 58.8449 305.197 59.2004C305.456 59.5559 305.585 59.968 305.585 60.4367C305.585 60.873 305.456 61.269 305.197 61.6245C304.947 61.9801 304.595 62.2588 304.143 62.4609C303.69 62.6629 303.177 62.7639 302.604 62.7639C302.038 62.7639 301.533 62.6629 301.088 62.4609C300.644 62.2588 300.297 61.9841 300.046 61.6366C299.804 61.2811 299.682 60.8811 299.682 60.4367ZM304.773 67.8061V66.1213H300.458V67.8061H304.773ZM300.943 60.4367C300.943 60.8003 301.097 61.0993 301.404 61.3336C301.719 61.568 302.123 61.6851 302.616 61.6851C303.117 61.6851 303.525 61.568 303.84 61.3336C304.163 61.0993 304.325 60.8003 304.325 60.4367C304.325 60.0408 304.167 59.7297 303.852 59.5034C303.537 59.2691 303.125 59.1519 302.616 59.1519C302.115 59.1519 301.711 59.2691 301.404 59.5034C301.097 59.7297 300.943 60.0408 300.943 60.4367ZM317.953 66.1577V67.2485H308.183V66.1577H317.953ZM309.783 61.8669C309.783 61.269 309.921 60.7357 310.195 60.267C310.478 59.7903 310.866 59.4226 311.359 59.164C311.852 58.8974 312.413 58.764 313.044 58.764C313.682 58.764 314.252 58.8974 314.753 59.164C315.254 59.4226 315.642 59.7903 315.916 60.267C316.199 60.7357 316.341 61.269 316.341 61.8669C316.341 62.4649 316.199 62.9982 315.916 63.4669C315.642 63.9355 315.254 64.3032 314.753 64.5698C314.252 64.8284 313.682 64.9577 313.044 64.9577C312.413 64.9577 311.848 64.8284 311.347 64.5698C310.854 64.3032 310.47 63.9355 310.195 63.4669C309.921 62.9982 309.783 62.4649 309.783 61.8669ZM311.068 61.8669C311.068 62.4487 311.25 62.9295 311.613 63.3093C311.985 63.681 312.462 63.8669 313.044 63.8669C313.642 63.8669 314.127 63.681 314.498 63.3093C314.87 62.9295 315.056 62.4487 315.056 61.8669C315.056 61.2771 314.87 60.7963 314.498 60.4246C314.127 60.0448 313.642 59.8549 313.044 59.8549C312.462 59.8549 311.985 60.0448 311.613 60.4246C311.25 60.7963 311.068 61.2771 311.068 61.8669ZM322.817 66.2789V64.7517H320.09V61.2367H325.69V59.9398H320.066V58.8853H326.926V62.2669H321.314V63.6972H327.169V64.7517H324.138V66.2789H328.381V67.3576H318.611V66.2789H322.817Z" fill="white"/>
</g>
<path d="M103.202 444.224L255.862 165.446L373.058 329.276L369.5 489L319 489L204 489L136.5 489L103.202 444.224Z" fill="#181839" fill-opacity="0.7"/>
<path d="M101.261 169.743C101.261 163.81 106.071 159 112.004 159H247.365C253.298 159 258.108 163.81 258.108 169.743V438.317C258.108 444.25 253.298 449.06 247.365 449.06H112.004C106.071 449.06 101.261 444.25 101.261 438.317V169.743Z" fill="#F5F3F2"/>
</g>
<defs>
<filter id="filter0_d_384_6115" x="16" y="588" width="328" height="64" filterUnits="userSpaceOnUse" color-interpolation-filters="sRGB">
<feFlood flood-opacity="0" result="BackgroundImageFix"/>
<feColorMatrix in="SourceAlpha" type="matrix" values="0 0 0 0 0 0 0 0 0 0 0 0 0 0 0 0 0 0 127 0" result="hardAlpha"/>
<feOffset dy="4"/>
<feGaussianBlur stdDeviation="2"/>
<feComposite in2="hardAlpha" operator="out"/>
<feColorMatrix type="matrix" values="0 0 0 0 0 0 0 0 0 0 0 0 0 0 0 0 0 0 0.1 0"/>
<feBlend mode="normal" in2="BackgroundImageFix" result="effect1_dropShadow_384_6115"/>
<feBlend mode="normal" in="SourceGraphic" in2="effect1_dropShadow_384_6115" result="shape"/>
</filter>
<filter id="filter1_d_384_6115" x="16" y="660" width="328" height="64" filterUnits="userSpaceOnUse" color-interpolation-filters="sRGB">
<feFlood flood-opacity="0" result="BackgroundImageFix"/>
<feColorMatrix in="SourceAlpha" type="matrix" values="0 0 0 0 0 0 0 0 0 0 0 0 0 0 0 0 0 0 127 0" result="hardAlpha"/>
<feOffset dy="4"/>
<feGaussianBlur stdDeviation="2"/>
<feComposite in2="hardAlpha" operator="out"/>
<feColorMatrix type="matrix" values="0 0 0 0 0 0 0 0 0 0 0 0 0 0 0 0 0 0 0.1 0"/>
<feBlend mode="normal" in2="BackgroundImageFix" result="effect1_dropShadow_384_6115"/>
<feBlend mode="normal" in="SourceGraphic" in2="effect1_dropShadow_384_6115" result="shape"/>
</filter>
<filter id="filter2_d_384_6115" x="16" y="732" width="328" height="64" filterUnits="userSpaceOnUse" color-interpolation-filters="sRGB">
<feFlood flood-opacity="0" result="BackgroundImageFix"/>
<feColorMatrix in="SourceAlpha" type="matrix" values="0 0 0 0 0 0 0 0 0 0 0 0 0 0 0 0 0 0 127 0" result="hardAlpha"/>
<feOffset dy="4"/>
<feGaussianBlur stdDeviation="2"/>
<feComposite in2="hardAlpha" operator="out"/>
<feColorMatrix type="matrix" values="0 0 0 0 0 0 0 0 0 0 0 0 0 0 0 0 0 0 0.1 0"/>
<feBlend mode="normal" in2="BackgroundImageFix" result="effect1_dropShadow_384_6115"/>
<feBlend mode="normal" in="SourceGraphic" in2="effect1_dropShadow_384_6115" result="shape"/>
</filter>
<filter id="filter3_d_384_6115" x="284.474" y="56.4468" width="47.1834" height="17.3173" filterUnits="userSpaceOnUse" color-interpolation-filters="sRGB">
<feFlood flood-opacity="0" result="BackgroundImageFix"/>
<feColorMatrix in="SourceAlpha" type="matrix" values="0 0 0 0 0 0 0 0 0 0 0 0 0 0 0 0 0 0 127 0" result="hardAlpha"/>
<feOffset dy="1.63855"/>
<feGaussianBlur stdDeviation="1.63855"/>
<feComposite in2="hardAlpha" operator="out"/>
<feColorMatrix type="matrix" values="0 0 0 0 0 0 0 0 0 0 0 0 0 0 0 0 0 0 0.1 0"/>
<feBlend mode="normal" in2="BackgroundImageFix" result="effect1_dropShadow_384_6115"/>
<feBlend mode="normal" in="SourceGraphic" in2="effect1_dropShadow_384_6115" result="shape"/>
</filter>
<clipPath id="clip0_384_6115">
<rect width="360" height="800" fill="white"/>
</clipPath>
<clipPath id="clip1_384_6115">
<rect width="12" height="12" fill="white" transform="translate(276 8)"/>
</clipPath>
<clipPath id="clip2_384_6115">
<rect width="11" height="6" fill="white" transform="translate(292 14)"/>
</clipPath>
</defs>
</svg>
