<svg width="78" height="31" viewBox="0 0 78 31" fill="none" xmlns="http://www.w3.org/2000/svg">
<rect width="78" height="31" fill="#F5F5F5"/>
<path d="M-2208 -591C-2208 -592.105 -2207.1 -593 -2206 -593H359C360.105 -593 361 -592.105 361 -591V406C361 407.105 360.105 408 359 408H-2206C-2207.1 408 -2208 407.105 -2208 406V-591Z" fill="#E5E5E5"/>
<g clip-path="url(#clip0_542_6628)">
<rect width="360" height="800" transform="translate(-99 -493)" fill="white"/>
<path d="M23.9217 11.2509H21.8013L20.7587 9.68736C20.7028 9.60364 20.6272 9.53498 20.5385 9.48748C20.4497 9.43998 20.3507 9.4151 20.25 9.41504H15.3544C15.2538 9.4151 15.1547 9.43998 15.066 9.48748C14.9772 9.53498 14.9016 9.60364 14.8457 9.68736L13.8024 11.2509H11.6827C11.1958 11.2509 10.7289 11.4443 10.3846 11.7886C10.0403 12.1329 9.84686 12.5998 9.84686 13.0867V21.654C9.84686 22.1409 10.0403 22.6079 10.3846 22.9522C10.7289 23.2965 11.1958 23.4899 11.6827 23.4899H23.9217C24.4086 23.4899 24.8756 23.2965 25.2199 22.9522C25.5642 22.6079 25.7576 22.1409 25.7576 21.654V13.0867C25.7576 12.5998 25.5642 12.1329 25.2199 11.7886C24.8756 11.4443 24.4086 11.2509 23.9217 11.2509ZM20.556 17.0644C20.556 17.6091 20.3945 18.1415 20.0919 18.5943C19.7893 19.0472 19.3592 19.4002 18.856 19.6086C18.3529 19.817 17.7992 19.8715 17.265 19.7653C16.7308 19.659 16.2401 19.3968 15.855 19.0116C15.4699 18.6265 15.2076 18.1358 15.1014 17.6017C14.9951 17.0675 15.0496 16.5138 15.2581 16.0106C15.4665 15.5074 15.8194 15.0773 16.2723 14.7747C16.7252 14.4721 17.2576 14.3106 17.8022 14.3106C18.5326 14.3106 19.233 14.6008 19.7494 15.1172C20.2659 15.6336 20.556 16.3341 20.556 17.0644Z" fill="#7C7C7C"/>
<rect x="0.411519" y="1.14785" width="76.6165" height="29.4407" rx="6.17278" stroke="#7C7C7C" stroke-opacity="0.3" stroke-width="0.823037"/>
<text fill="#7C7C7C" xml:space="preserve" style="white-space: pre" font-family="SUITE" font-size="12" letter-spacing="0em"><tspan x="35.1543" y="20.868">&#xce74;&#xba54;&#xb77c;</tspan></text>
</g>
<path d="M-2206 -592H359V-594H-2206V-592ZM360 -591V406H362V-591H360ZM359 407H-2206V409H359V407ZM-2207 406V-591H-2209V406H-2207ZM-2206 407C-2206.55 407 -2207 406.552 -2207 406H-2209C-2209 407.657 -2207.66 409 -2206 409V407ZM360 406C360 406.552 359.552 407 359 407V409C360.657 409 362 407.657 362 406H360ZM359 -592C359.552 -592 360 -591.552 360 -591H362C362 -592.657 360.657 -594 359 -594V-592ZM-2206 -594C-2207.66 -594 -2209 -592.657 -2209 -591H-2207C-2207 -591.552 -2206.55 -592 -2206 -592V-594Z" fill="black" fill-opacity="0.1"/>
<defs>
<clipPath id="clip0_542_6628">
<rect width="360" height="800" fill="white" transform="translate(-99 -493)"/>
</clipPath>
</defs>
</svg>
