<svg width="78" height="31" viewBox="0 0 78 31" fill="none" xmlns="http://www.w3.org/2000/svg">
<rect width="78" height="31" fill="#F5F5F5"/>
<path d="M-2292 -591C-2292 -592.105 -2291.1 -593 -2290 -593H275C276.105 -593 277 -592.105 277 -591V406C277 407.105 276.105 408 275 408H-2290C-2291.1 408 -2292 407.105 -2292 406V-591Z" fill="#E5E5E5"/>
<g clip-path="url(#clip0_542_6628)">
<rect width="360" height="800" transform="translate(-183 -493)" fill="white"/>
<g clip-path="url(#clip1_542_6628)">
<path fill-rule="evenodd" clip-rule="evenodd" d="M14.9495 9.19238C14.3593 9.19238 13.7933 9.42683 13.376 9.84415C12.9587 10.2615 12.7242 10.8275 12.7242 11.4177V18.8352C12.7242 19.2287 12.8805 19.606 13.1588 19.8842C13.437 20.1625 13.8143 20.3188 14.2078 20.3188V11.4177C14.2078 11.2209 14.2859 11.0323 14.425 10.8932C14.5641 10.754 14.7528 10.6759 14.9495 10.6759H25.3341C25.3341 10.2824 25.1778 9.90511 24.8996 9.62689C24.6214 9.34868 24.2441 9.19238 23.8506 9.19238H14.9495ZM14.9495 12.9012C14.9495 12.5077 15.1058 12.1304 15.384 11.8522C15.6622 11.574 16.0396 11.4177 16.433 11.4177H26.0759C26.4693 11.4177 26.8467 11.574 27.1249 11.8522C27.4031 12.1304 27.5594 12.5077 27.5594 12.9012V21.3075C27.5594 21.701 27.4031 22.0783 27.1249 22.3565C26.8467 22.6347 26.4693 22.791 26.0759 22.791H16.433C16.0396 22.791 15.6622 22.6347 15.384 22.3565C15.1058 22.0783 14.9495 21.701 14.9495 21.3075V12.9012ZM26.0759 12.9012H16.433V18.7225L19.2873 15.8682C19.3734 15.7821 19.4756 15.7138 19.5882 15.6672C19.7007 15.6205 19.8213 15.5966 19.943 15.5966C20.0648 15.5966 20.1854 15.6205 20.2979 15.6672C20.4104 15.7138 20.5126 15.7821 20.5987 15.8682L23.0028 18.2715L23.6585 17.6165C23.7446 17.5304 23.8468 17.4621 23.9593 17.4155C24.0718 17.3689 24.1924 17.3449 24.3142 17.3449C24.436 17.3449 24.5566 17.3689 24.6691 17.4155C24.7816 17.4621 24.8838 17.5304 24.9699 17.6165L26.0759 18.7225V12.9012ZM24.5924 15.1264C24.5924 15.4215 24.4752 15.7045 24.2665 15.9132C24.0578 16.1219 23.7748 16.2391 23.4797 16.2391C23.1846 16.2391 22.9016 16.1219 22.693 15.9132C22.4843 15.7045 22.3671 15.4215 22.3671 15.1264C22.3671 14.8314 22.4843 14.5484 22.693 14.3397C22.9016 14.131 23.1846 14.0138 23.4797 14.0138C23.7748 14.0138 24.0578 14.131 24.2665 14.3397C24.4752 14.5484 24.5924 14.8314 24.5924 15.1264Z" fill="#7C7C7C"/>
</g>
<rect x="0.972066" y="1.14785" width="76.6165" height="29.4407" rx="6.17278" stroke="#7C7C7C" stroke-opacity="0.3" stroke-width="0.823037"/>
<text fill="#7C7C7C" xml:space="preserve" style="white-space: pre" font-family="SUITE" font-size="12" letter-spacing="0em"><tspan x="36.6055" y="20.868">&#xac24;&#xb7ec;&#xb9ac;</tspan></text>
</g>
<path d="M-2290 -592H275V-594H-2290V-592ZM276 -591V406H278V-591H276ZM275 407H-2290V409H275V407ZM-2291 406V-591H-2293V406H-2291ZM-2290 407C-2290.55 407 -2291 406.552 -2291 406H-2293C-2293 407.657 -2291.66 409 -2290 409V407ZM276 406C276 406.552 275.552 407 275 407V409C276.657 409 278 407.657 278 406H276ZM275 -592C275.552 -592 276 -591.552 276 -591H278C278 -592.657 276.657 -594 275 -594V-592ZM-2290 -594C-2291.66 -594 -2293 -592.657 -2293 -591H-2291C-2291 -591.552 -2290.55 -592 -2290 -592V-594Z" fill="black" fill-opacity="0.1"/>
<defs>
<clipPath id="clip0_542_6628">
<rect width="360" height="800" fill="white" transform="translate(-183 -493)"/>
</clipPath>
<clipPath id="clip1_542_6628">
<rect width="17.8022" height="17.8022" fill="white" transform="translate(11.2422 6.9668)"/>
</clipPath>
</defs>
</svg>
