<svg width="82" height="43" viewBox="0 0 82 43" fill="none" xmlns="http://www.w3.org/2000/svg">
<g filter="url(#filter0_d_542_8435)">
<rect x="4" width="73.1282" height="34.3614" rx="8" fill="#F4CC36"/>
<g filter="url(#filter1_d_542_8435)">
<path d="M28.7148 12.1823V16.279H30.3511V17.3699H28.7148V22.6303H27.3936V12.1823H28.7148ZM20.7515 13.1883H25.7694V14.267H22.0605V18.885H26.2543V19.9758H20.7515V13.1883ZM39.058 19.091V22.8484H32.1734V19.091H39.058ZM30.7553 17.2972H40.4882V18.3517H30.7553V17.2972ZM32.6825 14.4367C32.6825 13.968 32.8037 13.5559 33.0461 13.2004C33.2966 12.8449 33.64 12.5701 34.0764 12.3762C34.5208 12.1823 35.0299 12.0853 35.6036 12.0853C36.1854 12.0853 36.6985 12.1823 37.1429 12.3762C37.5954 12.5701 37.9469 12.8449 38.1974 13.2004C38.456 13.5559 38.5853 13.968 38.5853 14.4367C38.5853 14.873 38.456 15.269 38.1974 15.6245C37.9469 15.9801 37.5954 16.2588 37.1429 16.4609C36.6904 16.6629 36.1773 16.7639 35.6036 16.7639C35.0379 16.7639 34.5329 16.6629 34.0885 16.4609C33.6441 16.2588 33.2966 15.9841 33.0461 15.6366C32.8037 15.2811 32.6825 14.8811 32.6825 14.4367ZM37.7732 21.8061V20.1213H33.4582V21.8061H37.7732ZM33.943 14.4367C33.943 14.8003 34.0966 15.0993 34.4036 15.3336C34.7188 15.568 35.1228 15.6851 35.6157 15.6851C36.1167 15.6851 36.5247 15.568 36.8399 15.3336C37.1631 15.0993 37.3247 14.8003 37.3247 14.4367C37.3247 14.0408 37.1671 13.7297 36.852 13.5034C36.5369 13.2691 36.1248 13.1519 35.6157 13.1519C35.1147 13.1519 34.7107 13.2691 34.4036 13.5034C34.0966 13.7297 33.943 14.0408 33.943 14.4367ZM50.9526 20.1577V21.2485H41.1833V20.1577H50.9526ZM42.7833 15.9397C42.7833 15.3417 42.9206 14.8084 43.1954 14.3397C43.4782 13.863 43.866 13.4953 44.359 13.2368C44.8519 12.9701 45.4135 12.8368 46.0437 12.8368C46.6821 12.8368 47.2518 12.9701 47.7527 13.2368C48.2537 13.4953 48.6416 13.863 48.9163 14.3397C49.1991 14.8084 49.3406 15.3417 49.3406 15.9397C49.3406 16.5376 49.1991 17.0709 48.9163 17.5396C48.6416 18.0083 48.2537 18.3759 47.7527 18.6426C47.2518 18.9011 46.6821 19.0304 46.0437 19.0304C45.4135 19.0304 44.8478 18.9011 44.3468 18.6426C43.8539 18.3759 43.4701 18.0083 43.1954 17.5396C42.9206 17.0709 42.7833 16.5376 42.7833 15.9397ZM44.0681 15.9397C44.0681 16.5215 44.2499 17.0022 44.6135 17.382C44.9852 17.7537 45.4619 17.9396 46.0437 17.9396C46.6417 17.9396 47.1265 17.7537 47.4982 17.382C47.8699 17.0022 48.0558 16.5215 48.0558 15.9397C48.0558 15.3498 47.8699 14.869 47.4982 14.4973C47.1265 14.1175 46.6417 13.9276 46.0437 13.9276C45.4619 13.9276 44.9852 14.1175 44.6135 14.4973C44.2499 14.869 44.0681 15.3498 44.0681 15.9397ZM55.8173 20.2789V18.7517H53.0901V15.3094H58.6899V14.0125H53.0659V12.958H59.9262V16.3396H54.3143V17.6972H60.1686V18.7517H57.1384V20.2789H61.3806V21.3576H51.6114V20.2789H55.8173Z" fill="white"/>
</g>
</g>
<defs>
<filter id="filter0_d_542_8435" x="0" y="0" width="81.1282" height="42.3613" filterUnits="userSpaceOnUse" color-interpolation-filters="sRGB">
<feFlood flood-opacity="0" result="BackgroundImageFix"/>
<feColorMatrix in="SourceAlpha" type="matrix" values="0 0 0 0 0 0 0 0 0 0 0 0 0 0 0 0 0 0 127 0" result="hardAlpha"/>
<feOffset dy="4"/>
<feGaussianBlur stdDeviation="2"/>
<feComposite in2="hardAlpha" operator="out"/>
<feColorMatrix type="matrix" values="0 0 0 0 0 0 0 0 0 0 0 0 0 0 0 0 0 0 0.1 0"/>
<feBlend mode="normal" in2="BackgroundImageFix" result="effect1_dropShadow_542_8435"/>
<feBlend mode="normal" in="SourceGraphic" in2="effect1_dropShadow_542_8435" result="shape"/>
</filter>
<filter id="filter1_d_542_8435" x="17.4744" y="10.4467" width="47.1834" height="17.3174" filterUnits="userSpaceOnUse" color-interpolation-filters="sRGB">
<feFlood flood-opacity="0" result="BackgroundImageFix"/>
<feColorMatrix in="SourceAlpha" type="matrix" values="0 0 0 0 0 0 0 0 0 0 0 0 0 0 0 0 0 0 127 0" result="hardAlpha"/>
<feOffset dy="1.63855"/>
<feGaussianBlur stdDeviation="1.63855"/>
<feComposite in2="hardAlpha" operator="out"/>
<feColorMatrix type="matrix" values="0 0 0 0 0 0 0 0 0 0 0 0 0 0 0 0 0 0 0.1 0"/>
<feBlend mode="normal" in2="BackgroundImageFix" result="effect1_dropShadow_542_8435"/>
<feBlend mode="normal" in="SourceGraphic" in2="effect1_dropShadow_542_8435" result="shape"/>
</filter>
</defs>
</svg>
