<svg width="157" height="42" viewBox="0 0 157 42" fill="none" xmlns="http://www.w3.org/2000/svg">
<g filter="url(#filter0_d_542_8598)">
<rect x="4" width="149" height="34" rx="8" fill="#F4CC36"/>
<g filter="url(#filter1_d_542_8598)">
<path d="M32.6896 11.5688V23.5948H31.2336V17.7008H29.9596V23.0068H28.5316V11.7928H29.9596V16.4688H31.2336V11.5688H32.6896ZM23.7856 16.7768C24.0096 16.3941 24.1543 16.0721 24.2196 15.8108C24.2943 15.5494 24.3316 15.2461 24.3316 14.9008V12.3668H25.7876V14.9008C25.7876 15.2274 25.825 15.5261 25.8996 15.7968C25.9743 16.0674 26.119 16.3988 26.3336 16.7908L28.1816 20.0528L26.9496 20.7528L25.1016 17.4628L25.0596 17.3928L25.0176 17.4768L23.1696 20.7528L21.9376 20.0528L23.7856 16.7768ZM38.9526 20.9068V19.1428H35.8026V15.0828H42.2706V13.5848H35.7746V12.3668H43.6986V16.2728H37.2166V17.9248H43.9786V19.1428H40.4786V20.9068H45.3786V22.1528H34.0946V20.9068H38.9526ZM57.4235 17.6448V18.8628H52.6355V21.1588H51.0955V18.8628H46.1395V17.6448H57.4235ZM47.7915 19.9968H49.3175V22.5448H55.8135V23.7768H47.7915V19.9968ZM48.3655 14.2708C48.3655 13.7201 48.5055 13.2394 48.7855 12.8288C49.0748 12.4088 49.4715 12.0868 49.9755 11.8628C50.4888 11.6388 51.0768 11.5268 51.7395 11.5268C52.4115 11.5268 53.0041 11.6434 53.5175 11.8768C54.0401 12.1008 54.4461 12.4181 54.7355 12.8288C55.0341 13.2394 55.1835 13.7201 55.1835 14.2708C55.1835 14.7841 55.0341 15.2508 54.7355 15.6708C54.4461 16.0814 54.0401 16.4081 53.5175 16.6508C52.9948 16.8841 52.4021 17.0008 51.7395 17.0008C51.0861 17.0008 50.5028 16.8841 49.9895 16.6508C49.4761 16.4081 49.0748 16.0814 48.7855 15.6708C48.5055 15.2508 48.3655 14.7841 48.3655 14.2708ZM49.8215 14.2708C49.8215 14.7001 49.9988 15.0594 50.3535 15.3488C50.7175 15.6288 51.1841 15.7688 51.7535 15.7688C52.3321 15.7688 52.8035 15.6288 53.1675 15.3488C53.5408 15.0594 53.7275 14.7001 53.7275 14.2708C53.7275 13.8041 53.5455 13.4354 53.1815 13.1648C52.8175 12.8941 52.3415 12.7588 51.7535 12.7588C51.1748 12.7588 50.7081 12.8941 50.3535 13.1648C49.9988 13.4354 49.8215 13.8041 49.8215 14.2708ZM72.107 11.5688V23.5948H70.665V17.6868H69.391V23.0068H67.977V11.7928H69.391V16.4408H70.665V11.5688H72.107ZM63.049 16.4688C63.2636 16.0768 63.4083 15.7501 63.483 15.4888C63.567 15.2274 63.609 14.9334 63.609 14.6068V13.8788H61.593V12.6468H67.081V13.8788H65.065V14.6068C65.065 14.9334 65.1023 15.2321 65.177 15.5028C65.2516 15.7641 65.401 16.0861 65.625 16.4688L67.529 19.7728L66.325 20.4728L64.421 17.1688L64.337 17.0148L64.253 17.1688L62.335 20.4728L61.131 19.7728L63.049 16.4688ZM76.5219 21.0468V19.0448H75.1639V15.0688H81.7439V13.5848H75.1359V12.3668H83.0599V16.2588H76.5779V17.8268H83.3399V19.0448H81.7999V21.0468H84.7399V22.2928H73.4559V21.0468H76.5219ZM80.3159 21.0468V19.0448H78.0059V21.0468H80.3159ZM88.7274 19.0448H99.9834V20.2908H95.1114V24.0288H93.5854V20.2908H88.7274V19.0448ZM92.8014 14.9008C93.0534 14.7421 93.2354 14.6068 93.3474 14.4948C93.4594 14.3828 93.5294 14.2708 93.5574 14.1588H90.0294V12.9268H93.6134V11.6668H95.1394V12.9268H98.7374V14.1588H95.1954C95.2234 14.2708 95.2887 14.3828 95.3914 14.4948C95.5034 14.5974 95.69 14.7328 95.9514 14.9008L99.1574 17.0008L98.3734 18.1768L95.1954 16.0768C94.8687 15.8714 94.598 15.6521 94.3834 15.4188C94.1407 15.6614 93.8654 15.8808 93.5574 16.0768L90.3794 18.1768L89.5954 17.0008L92.8014 14.9008ZM110.46 11.5548V16.3848H112.294V17.6448H110.46V23.5948H108.92V11.5548H110.46ZM101.066 19.3948C101.925 19.1708 102.704 18.8114 103.404 18.3168C104.114 17.8221 104.678 17.2061 105.098 16.4688C105.528 15.7221 105.742 14.8821 105.742 13.9488H101.416V12.7168H107.184V13.9488C107.184 15.1061 106.914 16.1561 106.372 17.0988C105.831 18.0414 105.122 18.8254 104.244 19.4508C103.367 20.0761 102.424 20.5194 101.416 20.7808L101.066 19.3948ZM122.505 11.5688V16.5388H124.395V17.7988H122.505V23.5948H120.993V11.5688H122.505ZM112.971 13.2348H115.701V11.7088H117.213V13.2348H119.943V14.4388H112.971V13.2348ZM113.433 17.8828C113.433 17.3134 113.559 16.8048 113.811 16.3568C114.073 15.9088 114.432 15.5588 114.889 15.3068C115.347 15.0548 115.869 14.9288 116.457 14.9288C117.045 14.9288 117.568 15.0548 118.025 15.3068C118.483 15.5588 118.837 15.9088 119.089 16.3568C119.351 16.8048 119.481 17.3134 119.481 17.8828C119.481 18.4521 119.351 18.9608 119.089 19.4088C118.837 19.8568 118.483 20.2068 118.025 20.4588C117.568 20.7014 117.045 20.8228 116.457 20.8228C115.869 20.8228 115.347 20.7014 114.889 20.4588C114.432 20.2068 114.073 19.8568 113.811 19.4088C113.559 18.9608 113.433 18.4521 113.433 17.8828ZM114.889 17.8828C114.889 18.3774 115.034 18.7834 115.323 19.1008C115.613 19.4088 115.991 19.5628 116.457 19.5628C116.924 19.5628 117.302 19.4088 117.591 19.1008C117.881 18.7834 118.025 18.3774 118.025 17.8828C118.025 17.3788 117.881 16.9728 117.591 16.6648C117.302 16.3474 116.924 16.1888 116.457 16.1888C115.991 16.1888 115.613 16.3474 115.323 16.6648C115.034 16.9728 114.889 17.3788 114.889 17.8828ZM135.166 11.5688V23.5948H133.64V11.5688H135.166ZM125.436 19.3108C126.808 18.9468 127.928 18.3214 128.796 17.4348C129.664 16.5481 130.103 15.3861 130.112 13.9488H125.786V12.7168H131.554V13.9488C131.545 15.1621 131.269 16.2354 130.728 17.1688C130.187 18.0928 129.482 18.8488 128.614 19.4368C127.746 20.0248 126.803 20.4494 125.786 20.7108L125.436 19.3108Z" fill="white"/>
</g>
</g>
<defs>
<filter id="filter0_d_542_8598" x="0" y="0" width="157" height="42" filterUnits="userSpaceOnUse" color-interpolation-filters="sRGB">
<feFlood flood-opacity="0" result="BackgroundImageFix"/>
<feColorMatrix in="SourceAlpha" type="matrix" values="0 0 0 0 0 0 0 0 0 0 0 0 0 0 0 0 0 0 127 0" result="hardAlpha"/>
<feOffset dy="4"/>
<feGaussianBlur stdDeviation="2"/>
<feComposite in2="hardAlpha" operator="out"/>
<feColorMatrix type="matrix" values="0 0 0 0 0 0 0 0 0 0 0 0 0 0 0 0 0 0 0.1 0"/>
<feBlend mode="normal" in2="BackgroundImageFix" result="effect1_dropShadow_542_8598"/>
<feBlend mode="normal" in="SourceGraphic" in2="effect1_dropShadow_542_8598" result="shape"/>
</filter>
<filter id="filter1_d_542_8598" x="17.9377" y="8.52686" width="121.228" height="20.502" filterUnits="userSpaceOnUse" color-interpolation-filters="sRGB">
<feFlood flood-opacity="0" result="BackgroundImageFix"/>
<feColorMatrix in="SourceAlpha" type="matrix" values="0 0 0 0 0 0 0 0 0 0 0 0 0 0 0 0 0 0 127 0" result="hardAlpha"/>
<feOffset dy="1"/>
<feGaussianBlur stdDeviation="2"/>
<feComposite in2="hardAlpha" operator="out"/>
<feColorMatrix type="matrix" values="0 0 0 0 0 0 0 0 0 0 0 0 0 0 0 0 0 0 0.08 0"/>
<feBlend mode="normal" in2="BackgroundImageFix" result="effect1_dropShadow_542_8598"/>
<feBlend mode="normal" in="SourceGraphic" in2="effect1_dropShadow_542_8598" result="shape"/>
</filter>
</defs>
</svg>
