<svg width="296" height="55" viewBox="0 0 296 55" fill="none" xmlns="http://www.w3.org/2000/svg">
<g filter="url(#filter0_d_687_7903)">
<rect x="4.67969" width="286.641" height="46.2323" rx="7.39718" fill="#D7D6D5"/>
<g filter="url(#filter1_d_687_7903)">
<path d="M132.68 16.0166V21.0171H134.678V22.3486H132.68V28.7693H131.068V16.0166H132.68ZM122.961 17.2445H129.085V18.5612H124.558V24.1979H129.677V25.5293H122.961V17.2445ZM145.305 24.4494V29.0356H136.902V24.4494H145.305ZM135.171 22.2598H147.051V23.5469H135.171V22.2598ZM137.523 18.7683C137.523 18.1963 137.671 17.6933 137.967 17.2593C138.273 16.8253 138.692 16.49 139.225 16.2533C139.767 16.0166 140.389 15.8982 141.089 15.8982C141.799 15.8982 142.425 16.0166 142.968 16.2533C143.52 16.49 143.949 16.8253 144.255 17.2593C144.57 17.6933 144.728 18.1963 144.728 18.7683C144.728 19.3009 144.57 19.7842 144.255 20.2182C143.949 20.6521 143.52 20.9924 142.968 21.239C142.415 21.4856 141.789 21.6088 141.089 21.6088C140.398 21.6088 139.782 21.4856 139.24 21.239C138.697 20.9924 138.273 20.6571 137.967 20.233C137.671 19.799 137.523 19.3108 137.523 18.7683ZM143.737 27.7633V25.7069H138.47V27.7633H143.737ZM139.062 18.7683C139.062 19.2122 139.249 19.5771 139.624 19.8631C140.009 20.1491 140.502 20.2921 141.104 20.2921C141.715 20.2921 142.213 20.1491 142.598 19.8631C142.992 19.5771 143.19 19.2122 143.19 18.7683C143.19 18.285 142.997 17.9053 142.613 17.6292C142.228 17.3431 141.725 17.2001 141.104 17.2001C140.492 17.2001 139.999 17.3431 139.624 17.6292C139.249 17.9053 139.062 18.285 139.062 18.7683ZM159.824 25.7513V27.0828H147.899V25.7513H159.824ZM149.852 20.6028C149.852 19.873 150.02 19.222 150.355 18.65C150.701 18.0681 151.174 17.6193 151.776 17.3037C152.377 16.9782 153.063 16.8155 153.832 16.8155C154.611 16.8155 155.306 16.9782 155.918 17.3037C156.529 17.6193 157.003 18.0681 157.338 18.65C157.683 19.222 157.856 19.873 157.856 20.6028C157.856 21.3327 157.683 21.9836 157.338 22.5557C157.003 23.1277 156.529 23.5765 155.918 23.902C155.306 24.2176 154.611 24.3754 153.832 24.3754C153.063 24.3754 152.372 24.2176 151.761 23.902C151.159 23.5765 150.691 23.1277 150.355 22.5557C150.02 21.9836 149.852 21.3327 149.852 20.6028ZM151.421 20.6028C151.421 21.313 151.642 21.8998 152.086 22.3634C152.54 22.817 153.122 23.0439 153.832 23.0439C154.562 23.0439 155.154 22.817 155.607 22.3634C156.061 21.8998 156.288 21.313 156.288 20.6028C156.288 19.8828 156.061 19.296 155.607 18.8423C155.154 18.3787 154.562 18.147 153.832 18.147C153.122 18.147 152.54 18.3787 152.086 18.8423C151.642 19.296 151.421 19.8828 151.421 20.6028ZM165.761 25.8992V24.0351H162.433V19.8335H169.268V18.2505H162.403V16.9634H170.777V21.091H163.927V22.748H171.073V24.0351H167.374V25.8992H172.552V27.2159H160.628V25.8992H165.761Z" fill="white"/>
</g>
</g>
<defs>
<filter id="filter0_d_687_7903" x="0.679688" y="0" width="294.641" height="54.2324" filterUnits="userSpaceOnUse" color-interpolation-filters="sRGB">
<feFlood flood-opacity="0" result="BackgroundImageFix"/>
<feColorMatrix in="SourceAlpha" type="matrix" values="0 0 0 0 0 0 0 0 0 0 0 0 0 0 0 0 0 0 127 0" result="hardAlpha"/>
<feOffset dy="4"/>
<feGaussianBlur stdDeviation="2"/>
<feComposite in2="hardAlpha" operator="out"/>
<feColorMatrix type="matrix" values="0 0 0 0 0 0 0 0 0 0 0 0 0 0 0 0 0 0 0.1 0"/>
<feBlend mode="normal" in2="BackgroundImageFix" result="effect1_dropShadow_687_7903"/>
<feBlend mode="normal" in="SourceGraphic" in2="effect1_dropShadow_687_7903" result="shape"/>
</filter>
<filter id="filter1_d_687_7903" x="118.961" y="13.8984" width="57.5915" height="21.1372" filterUnits="userSpaceOnUse" color-interpolation-filters="sRGB">
<feFlood flood-opacity="0" result="BackgroundImageFix"/>
<feColorMatrix in="SourceAlpha" type="matrix" values="0 0 0 0 0 0 0 0 0 0 0 0 0 0 0 0 0 0 127 0" result="hardAlpha"/>
<feOffset dy="2"/>
<feGaussianBlur stdDeviation="2"/>
<feComposite in2="hardAlpha" operator="out"/>
<feColorMatrix type="matrix" values="0 0 0 0 0 0 0 0 0 0 0 0 0 0 0 0 0 0 0.1 0"/>
<feBlend mode="normal" in2="BackgroundImageFix" result="effect1_dropShadow_687_7903"/>
<feBlend mode="normal" in="SourceGraphic" in2="effect1_dropShadow_687_7903" result="shape"/>
</filter>
</defs>
</svg>
