<svg width="25" height="22" viewBox="0 0 25 22" fill="none" xmlns="http://www.w3.org/2000/svg">
<path d="M2.5 2.44444H6.25L8.75 0H16.25L18.75 2.44444H22.5C23.163 2.44444 23.7989 2.70198 24.2678 3.16041C24.7366 3.61883 25 4.24058 25 4.88889V19.5556C25 20.2039 24.7366 20.8256 24.2678 21.284C23.7989 21.7425 23.163 22 22.5 22H2.5C1.83696 22 1.20107 21.7425 0.732233 21.284C0.263392 20.8256 0 20.2039 0 19.5556V4.88889C0 4.24058 0.263392 3.61883 0.732233 3.16041C1.20107 2.70198 1.83696 2.44444 2.5 2.44444ZM12.5 6.11111C10.8424 6.11111 9.25268 6.75496 8.08058 7.90101C6.90848 9.04707 6.25 10.6015 6.25 12.2222C6.25 13.843 6.90848 15.3974 8.08058 16.5434C9.25268 17.6895 10.8424 18.3333 12.5 18.3333C14.1576 18.3333 15.7473 17.6895 16.9194 16.5434C18.0915 15.3974 18.75 13.843 18.75 12.2222C18.75 10.6015 18.0915 9.04707 16.9194 7.90101C15.7473 6.75496 14.1576 6.11111 12.5 6.11111ZM12.5 8.55556C13.4946 8.55556 14.4484 8.94186 15.1517 9.6295C15.8549 10.3171 16.25 11.2498 16.25 12.2222C16.25 13.1947 15.8549 14.1273 15.1517 14.8149C14.4484 15.5026 13.4946 15.8889 12.5 15.8889C11.5054 15.8889 10.5516 15.5026 9.84835 14.8149C9.14509 14.1273 8.75 13.1947 8.75 12.2222C8.75 11.2498 9.14509 10.3171 9.84835 9.6295C10.5516 8.94186 11.5054 8.55556 12.5 8.55556Z" fill="white"/>
</svg>
