<svg width="80" height="48" viewBox="0 0 80 48" fill="none" xmlns="http://www.w3.org/2000/svg">
<g filter="url(#filter0_d_687_7898)">
<rect x="4" width="72" height="40" rx="7.39718" fill="#F4CC36"/>
<path d="M23.1254 26.0462C22.573 26.0462 22.0768 25.9383 21.6367 25.7226C21.1966 25.5068 20.8514 25.2091 20.6011 24.8294C20.3594 24.4583 20.2386 24.044 20.2386 23.5866C20.2386 22.9394 20.4501 22.4043 20.8729 21.9815C21.2958 21.55 21.8568 21.2867 22.5558 21.1918V20.208H17.9732V19.3277H28.2516V20.208H23.6432V21.1789C24.3595 21.2738 24.9334 21.537 25.3649 21.9685C25.805 22.3914 26.0251 22.9308 26.0251 23.5866C26.0251 24.044 25.8999 24.4583 25.6497 24.8294C25.408 25.2091 25.0628 25.5068 24.614 25.7226C24.1739 25.9383 23.6777 26.0462 23.1254 26.0462ZM21.8697 16.5834C22.1459 16.4453 22.3314 16.3029 22.4263 16.1562C22.5213 16.0008 22.5687 15.8412 22.5687 15.6772H19.3713V14.7711H26.8406V15.6772H23.6302C23.6302 15.8412 23.6777 16.0008 23.7726 16.1562C23.8675 16.3029 24.0531 16.4453 24.3293 16.5834L27.1642 17.9297L26.75 18.8099L23.915 17.4377C23.5957 17.2824 23.3239 17.0753 23.0995 16.8164C22.8924 17.0667 22.6205 17.2738 22.2839 17.4377L19.4619 18.8099L19.0477 17.9297L21.8697 16.5834ZM21.3001 23.5866C21.3001 24.0182 21.4684 24.3806 21.805 24.674C22.1502 24.9675 22.5903 25.1142 23.1254 25.1142C23.4792 25.1142 23.7942 25.0451 24.0704 24.907C24.3465 24.769 24.5623 24.5834 24.7176 24.3504C24.8816 24.1174 24.9636 23.8628 24.9636 23.5866C24.9636 23.3191 24.8816 23.0688 24.7176 22.8358C24.5623 22.6028 24.3465 22.4216 24.0704 22.2921C23.7942 22.1541 23.4792 22.085 23.1254 22.085C22.7715 22.085 22.4565 22.1541 22.1804 22.2921C21.9042 22.4216 21.6885 22.6028 21.5331 22.8358C21.3778 23.0688 21.3001 23.3191 21.3001 23.5866ZM33.592 19.975V18.6546H30.6146V14.6287H31.702V15.8843H36.6081V14.6287H37.7085V18.6546H34.6793V19.975H39.2878V20.8682H29.0094V19.975H33.592ZM30.524 21.8391H37.7732V25.7355H36.6858V22.7323H30.524V21.8391ZM36.6081 17.7873V16.7387H31.702V17.7873H36.6081ZM47.7867 23.1983H41.7673V22.318L48.8741 22.331V25.7355H47.7867V23.1983ZM40.0715 20.5446H42.9841V19.8196C42.3886 19.7161 41.9097 19.4615 41.5472 19.0559C41.1934 18.6503 41.0164 18.1584 41.0164 17.5801C41.0164 17.0623 41.2322 16.5877 41.6637 16.1562H40.3951V15.25H43.01V14.3827H44.0844V15.25H46.6993V16.1562H45.4437C45.8838 16.5963 46.1039 17.071 46.1039 17.5801C46.1039 18.1584 45.9183 18.6503 45.5472 19.0559C45.1761 19.4615 44.6842 19.7161 44.0715 19.8196V20.5446H47.0618V21.4248H40.0715V20.5446ZM42.0391 17.5801C42.0391 17.9944 42.1772 18.331 42.4533 18.5899C42.7295 18.8488 43.0833 18.9782 43.5148 18.9782C43.9722 18.9782 44.3476 18.8488 44.6411 18.5899C44.9345 18.331 45.0812 17.9944 45.0812 17.5801C45.0812 17.1832 44.9345 16.8595 44.6411 16.6093C44.3476 16.3504 43.9722 16.2209 43.5148 16.2209C43.0833 16.2209 42.7295 16.3504 42.4533 16.6093C42.1772 16.8595 42.0391 17.1832 42.0391 17.5801ZM47.7867 14.3698H48.8741V17.7873H50.5311V18.6934H48.8741V21.7743H47.7867V14.3698ZM60.4151 14.3698V22.2792H59.3148V14.3698H60.4151ZM51.4442 17.6708C51.4442 17.1443 51.565 16.674 51.8067 16.2597C52.0483 15.8455 52.3806 15.5219 52.8034 15.2889C53.2349 15.0559 53.7268 14.9393 54.2792 14.9393C54.8229 14.9393 55.3061 15.0559 55.729 15.2889C56.1605 15.5219 56.4971 15.8455 56.7387 16.2597C56.9804 16.674 57.1012 17.1443 57.1012 17.6708C57.1012 18.1886 56.9804 18.6546 56.7387 19.0688C56.4971 19.4744 56.1605 19.7937 55.729 20.0268C55.3061 20.2598 54.8229 20.3763 54.2792 20.3763C53.7268 20.3763 53.2349 20.2641 52.8034 20.0397C52.3806 19.8067 52.0483 19.4831 51.8067 19.0688C51.565 18.6546 51.4442 18.1886 51.4442 17.6708ZM52.5186 17.6708C52.5186 18.1972 52.6826 18.6287 53.0105 18.9653C53.3385 19.3018 53.7614 19.4701 54.2792 19.4701C54.7883 19.4701 55.2069 19.3018 55.5348 18.9653C55.8628 18.6287 56.0267 18.1972 56.0267 17.6708C56.0267 17.1271 55.8628 16.6869 55.5348 16.3504C55.2155 16.0138 54.797 15.8455 54.2792 15.8455C53.7614 15.8455 53.3385 16.0138 53.0105 16.3504C52.6826 16.6869 52.5186 17.1271 52.5186 17.6708ZM53.3601 21.8779H54.4604V24.5964H60.5057V25.4896H53.3601V21.8779Z" fill="#F5F3F2"/>
</g>
<defs>
<filter id="filter0_d_687_7898" x="0" y="0" width="80" height="48" filterUnits="userSpaceOnUse" color-interpolation-filters="sRGB">
<feFlood flood-opacity="0" result="BackgroundImageFix"/>
<feColorMatrix in="SourceAlpha" type="matrix" values="0 0 0 0 0 0 0 0 0 0 0 0 0 0 0 0 0 0 127 0" result="hardAlpha"/>
<feOffset dy="4"/>
<feGaussianBlur stdDeviation="2"/>
<feComposite in2="hardAlpha" operator="out"/>
<feColorMatrix type="matrix" values="0 0 0 0 0 0 0 0 0 0 0 0 0 0 0 0 0 0 0.1 0"/>
<feBlend mode="normal" in2="BackgroundImageFix" result="effect1_dropShadow_687_7898"/>
<feBlend mode="normal" in="SourceGraphic" in2="effect1_dropShadow_687_7898" result="shape"/>
</filter>
</defs>
</svg>
