<svg width="73" height="19" viewBox="0 0 73 19" fill="none" xmlns="http://www.w3.org/2000/svg">
<path d="M34.096 4.316V9.68H32.944V7.472H31.036C30.94 8.096 30.648 8.6 30.16 8.984C29.68 9.368 29.088 9.56 28.384 9.56C27.864 9.56 27.4 9.452 26.992 9.236C26.584 9.02 26.264 8.72 26.032 8.336C25.808 7.952 25.696 7.516 25.696 7.028C25.696 6.54 25.808 6.104 26.032 5.72C26.264 5.336 26.584 5.036 26.992 4.82C27.4 4.604 27.864 4.496 28.384 4.496C29.08 4.496 29.664 4.684 30.136 5.06C30.616 5.428 30.912 5.92 31.024 6.536H32.944V4.316H34.096ZM26.824 7.028C26.824 7.5 26.968 7.888 27.256 8.192C27.544 8.488 27.92 8.636 28.384 8.636C28.84 8.636 29.212 8.488 29.5 8.192C29.788 7.888 29.932 7.5 29.932 7.028C29.932 6.556 29.788 6.172 29.5 5.876C29.212 5.58 28.84 5.432 28.384 5.432C27.92 5.432 27.544 5.58 27.256 5.876C26.968 6.172 26.824 6.556 26.824 7.028ZM27.568 10.22H34.096V12.896H28.732V13.892H34.372V14.804H27.58V12.032H32.944V11.132H27.568V10.22ZM43.7613 11.096V14.804H37.0293V11.096H43.7613ZM35.6013 9.404H45.1893V10.328H35.6013V9.404ZM37.5213 6.524C37.5213 6.06 37.6413 5.656 37.8813 5.312C38.1213 4.96 38.4573 4.692 38.8893 4.508C39.3213 4.316 39.8173 4.22 40.3773 4.22C40.9453 4.22 41.4493 4.316 41.8893 4.508C42.3293 4.692 42.6733 4.96 42.9213 5.312C43.1693 5.656 43.2933 6.06 43.2933 6.524C43.2933 6.956 43.1693 7.348 42.9213 7.7C42.6733 8.044 42.3253 8.316 41.8773 8.516C41.4373 8.708 40.9373 8.804 40.3773 8.804C39.8253 8.804 39.3333 8.708 38.9013 8.516C38.4693 8.316 38.1293 8.044 37.8813 7.7C37.6413 7.348 37.5213 6.956 37.5213 6.524ZM42.6213 13.868V12.008H38.1693V13.868H42.6213ZM38.6373 6.524C38.6373 6.9 38.7973 7.216 39.1173 7.472C39.4453 7.72 39.8653 7.844 40.3773 7.844C40.9053 7.844 41.3373 7.72 41.6733 7.472C42.0093 7.216 42.1773 6.9 42.1773 6.524C42.1773 6.108 42.0133 5.78 41.6853 5.54C41.3573 5.3 40.9213 5.18 40.3773 5.18C39.8493 5.18 39.4253 5.3 39.1053 5.54C38.7933 5.78 38.6373 6.108 38.6373 6.524ZM48.6443 10.712H58.2443V11.66H54.0203V14.948H52.8563V11.66H48.6443V10.712ZM52.1483 7.172C52.3323 7.052 52.4803 6.948 52.5923 6.86C52.7123 6.772 52.7843 6.704 52.8083 6.656C52.8403 6.6 52.8563 6.528 52.8563 6.44H49.7843V5.48H52.8803V4.412H54.0563V5.48H57.1523V6.44H54.0683C54.0683 6.528 54.0803 6.6 54.1043 6.656C54.1363 6.704 54.1963 6.764 54.2843 6.836C54.3723 6.908 54.5363 7.02 54.7763 7.172L57.5123 8.984L56.9123 9.872L54.2003 8.06C53.8563 7.828 53.6123 7.636 53.4683 7.484C53.3003 7.652 53.0603 7.844 52.7483 8.06L50.0003 9.872L49.4243 8.984L52.1483 7.172ZM67.1417 4.304V8.48H68.7617V9.44H67.1417V14.564H65.9657V4.304H67.1417ZM59.2217 10.844C59.9417 10.652 60.6137 10.332 61.2377 9.884C61.8617 9.436 62.3577 8.896 62.7257 8.264C63.1017 7.632 63.2897 6.968 63.2897 6.272V6.26H59.5337V5.312H64.3937V6.272C64.3937 7.144 64.1617 7.972 63.6977 8.756C63.2417 9.532 62.6377 10.2 61.8857 10.76C61.1337 11.312 60.3377 11.7 59.4977 11.924L59.2217 10.844Z" fill="#F5F3F2"/>
<path d="M10.45 8.55V4.75H8.55V8.55H4.75V10.45H8.55V14.25H10.45V10.45H14.25V8.55H10.45ZM9.5 19C6.98044 19 4.56408 17.9991 2.78249 16.2175C1.00089 14.4359 0 12.0196 0 9.5C0 6.98044 1.00089 4.56408 2.78249 2.78249C4.56408 1.00089 6.98044 0 9.5 0C12.0196 0 14.4359 1.00089 16.2175 2.78249C17.9991 4.56408 19 6.98044 19 9.5C19 12.0196 17.9991 14.4359 16.2175 16.2175C14.4359 17.9991 12.0196 19 9.5 19Z" fill="#D7D6D5"/>
</svg>
