<svg width="122" height="82" viewBox="0 0 122 82" fill="none" xmlns="http://www.w3.org/2000/svg">
<rect y="11.5228" width="29.5877" height="28.4497" rx="6.93896" transform="rotate(-9.90057 0 11.5228)" fill="#9CDBFF"/>
<rect x="21.1261" y="40.1292" width="29.5877" height="28.4497" rx="6.93896" transform="rotate(7.06066 21.1261 40.1292)" fill="#9CDBFF"/>
<path d="M51.8411 40.6521C48.6152 38.5834 47.677 34.2912 49.7458 31.0653L58.2262 17.841C60.2949 14.6151 64.5871 13.677 67.813 15.7457L80.0793 23.6118C83.3053 25.6806 84.2434 29.9727 82.1747 33.1987L73.6943 46.4229C71.6255 49.6489 67.3333 50.587 64.1074 48.5183L51.8411 40.6521Z" fill="#9CDBFF"/>
<rect x="82.3792" y="81.7482" width="29.5877" height="28.4497" rx="6.93896" transform="rotate(-104.442 82.3792 81.7482)" fill="#9CDBFF"/>
<rect x="89" y="29.2677" width="29.5877" height="28.4497" rx="6.93896" transform="rotate(-81.5648 89 29.2677)" fill="#9CDBFF"/>
</svg>
