<svg width="24" height="24" viewBox="0 0 24 24" fill="none" xmlns="http://www.w3.org/2000/svg">
<g clip-path="url(#clip0_781_8201)">
<path d="M12.0008 10.2057C13.0617 10.2057 14.0791 10.6271 14.8292 11.3773C15.5794 12.1274 16.0008 13.1448 16.0008 14.2057C16.0008 15.2665 15.5794 16.284 14.8292 17.0341C14.0791 17.7843 13.0617 18.2057 12.0008 18.2057C10.9399 18.2057 9.92252 17.7843 9.17237 17.0341C8.42222 16.284 8.0008 15.2665 8.0008 14.2057C8.0008 13.1448 8.42222 12.1274 9.17237 11.3773C9.92252 10.6271 10.9399 10.2057 12.0008 10.2057ZM12.0008 6.70068C16.6138 6.70068 20.5968 9.85068 21.7018 14.2647C21.7502 14.4576 21.72 14.6619 21.6178 14.8326C21.5156 15.0032 21.3497 15.1263 21.1568 15.1747C20.9639 15.2231 20.7596 15.1929 20.5889 15.0907C20.4183 14.9884 20.2952 14.8226 20.2468 14.6297C19.7838 12.7932 18.721 11.1637 17.2268 9.99981C15.7327 8.83589 13.8927 8.20406 11.9987 8.20452C10.1047 8.20498 8.26511 8.8377 6.77153 10.0024C5.27794 11.167 4.2159 12.7969 3.7538 14.6337C3.72996 14.7293 3.68753 14.8193 3.62892 14.8985C3.57032 14.9777 3.49669 15.0445 3.41223 15.0953C3.32778 15.146 3.23415 15.1797 3.13671 15.1942C3.03926 15.2088 2.9399 15.204 2.8443 15.1802C2.74869 15.1563 2.65872 15.1139 2.57952 15.0553C2.50032 14.9967 2.43343 14.9231 2.38268 14.8386C2.33194 14.7542 2.29832 14.6605 2.28376 14.5631C2.26919 14.4656 2.27396 14.3663 2.2978 14.2707C2.84011 12.108 4.08945 10.1885 5.8474 8.81695C7.60535 7.44545 9.77113 6.7006 12.0008 6.70068Z" fill="#C6C6C6"/>
</g>
<defs>
<clipPath id="clip0_781_8201">
<rect width="24" height="24" fill="white"/>
</clipPath>
</defs>
</svg>
