<svg width="360" height="800" viewBox="0 0 360 800" fill="none" xmlns="http://www.w3.org/2000/svg">
<g clip-path="url(#clip0_542_8860)">
<rect width="360" height="800" fill="#F5F3F2"/>
<rect width="368" height="762" fill="#24244E"/>
<rect y="456" width="368" height="365" rx="8" fill="#F5F3F2"/>
<rect x="126" y="786" width="108" height="4" rx="2" fill="#D9D9D9"/>
<g filter="url(#filter0_d_542_8860)">
<rect x="21" y="505" width="320" height="56" rx="9" fill="#F5F3F2"/>
</g>
<rect x="37" y="517" width="32" height="32" rx="4" fill="#F9ED69"/>
<path d="M82.376 536.054V533.52H83.552V536.054H88.536V537.048H77.392V536.054H82.376ZM81.466 530.58C81.7367 530.393 81.9327 530.244 82.054 530.132C82.1753 530.011 82.25 529.899 82.278 529.796C82.3153 529.693 82.334 529.558 82.334 529.39V527.64H83.608V529.39C83.608 529.539 83.6267 529.661 83.664 529.754C83.7013 529.847 83.7807 529.955 83.902 530.076C84.0233 530.197 84.224 530.37 84.504 530.594L87.682 533.156L87.01 533.996L83.832 531.434C83.4867 531.154 83.2067 530.893 82.992 530.65C82.7773 530.921 82.4833 531.187 82.11 531.448L78.946 533.996L78.274 533.156L81.466 530.58ZM100.458 533.744V534.71H95.4455V539.05H94.2835V534.71H89.3275V533.744H100.458ZM93.4155 529.74C93.7049 529.553 93.9009 529.423 94.0035 529.348C94.1155 529.264 94.1855 529.194 94.2135 529.138C94.2415 529.082 94.2555 529.003 94.2555 528.9V528.256H90.6995V527.276H99.0435V528.256H95.4875V528.9C95.4875 529.003 95.5015 529.082 95.5295 529.138C95.5575 529.194 95.6229 529.264 95.7255 529.348C95.8375 529.423 96.0382 529.553 96.3275 529.74L99.5055 531.812L98.9175 532.708L95.7675 530.636C95.3942 530.403 95.0955 530.174 94.8715 529.95C94.6475 530.174 94.3489 530.403 93.9755 530.636L90.8255 532.708L90.2375 531.812L93.4155 529.74Z" fill="#414042"/>
<g filter="url(#filter1_d_542_8860)">
<rect x="289.481" y="516.764" width="32" height="32" rx="3" fill="#F6F6F6"/>
</g>
<path d="M303.114 535.872C303.916 535.135 304.57 534.509 305.074 533.996C305.578 533.483 306.002 532.96 306.348 532.428C306.702 531.887 306.88 531.392 306.88 530.944C306.88 530.309 306.698 529.791 306.334 529.39C305.97 528.989 305.503 528.788 304.934 528.788C304.514 528.788 304.108 528.928 303.716 529.208C303.333 529.488 303.044 529.852 302.848 530.3L301.812 529.866C302.082 529.25 302.512 528.746 303.1 528.354C303.688 527.962 304.299 527.766 304.934 527.766C305.531 527.766 306.063 527.901 306.53 528.172C307.006 528.443 307.374 528.821 307.636 529.306C307.897 529.782 308.028 530.328 308.028 530.944C308.028 531.541 307.832 532.157 307.44 532.792C307.057 533.427 306.595 534.024 306.054 534.584C305.512 535.135 304.817 535.793 303.968 536.558L303.464 537.02H308.182V538.028H302.036L301.896 537.02L303.114 535.872Z" fill="#414042"/>
<g filter="url(#filter2_d_542_8860)">
<rect x="21" y="577" width="320" height="56" rx="9" fill="#F5F3F2"/>
</g>
<rect x="37" y="589" width="32" height="32" rx="4" fill="#F08A5D"/>
<path d="M81.886 604.064V602.622H83.062V604.064H88.494V605.002H77.406V604.064H81.886ZM78.918 601.068H85.344V600.214H78.918V599.248H86.548V603.336H85.344V602.034H78.918V601.068ZM79.03 606.01H86.744V608.852H80.248V609.944H87.122V610.868H79.072V607.984H85.568V606.92H79.03V606.01ZM98.8195 598.73V603.602H100.808V604.61H98.8195V610.644H97.6435V598.73H98.8195ZM89.8035 599.892H95.5015V604.316H91.0075V606.906H96.4255V607.886H89.8455V603.35H94.3395V600.844H89.8035V599.892Z" fill="#414042"/>
<g filter="url(#filter3_d_542_8860)">
<rect x="289.481" y="588.764" width="32" height="32" rx="3" fill="#F6F6F6"/>
</g>
<g filter="url(#filter4_d_542_8860)">
<rect x="21" y="649" width="320" height="56" rx="9" fill="#F5F3F2"/>
</g>
<rect x="37" y="661" width="32" height="32" rx="4" fill="#B83B5E"/>
<path d="M86.856 671.85V672.816H80.248V674.37H86.856V675.336H80.248V676.904H86.856V677.87H83.538V680.138H88.536V681.104H77.392V680.138H82.362V677.87H79.058V671.85H86.856ZM99.4215 678.458V683.064H98.2315V679.438H91.6095V678.458H99.4215ZM90.0695 671.43H91.2455V675.896H96.3835V676.876H90.0695V671.43ZM98.2315 670.758H99.4215V677.856H98.2315V670.758ZM105.239 676.554C104.651 676.554 104.124 676.437 103.657 676.204C103.2 675.961 102.84 675.63 102.579 675.21C102.327 674.79 102.201 674.309 102.201 673.768C102.201 673.227 102.327 672.746 102.579 672.326C102.84 671.897 103.2 671.565 103.657 671.332C104.124 671.089 104.651 670.968 105.239 670.968C105.836 670.968 106.368 671.089 106.835 671.332C107.311 671.565 107.68 671.897 107.941 672.326C108.212 672.746 108.347 673.227 108.347 673.768C108.347 674.309 108.212 674.79 107.941 675.21C107.68 675.63 107.311 675.961 106.835 676.204C106.368 676.437 105.836 676.554 105.239 676.554ZM101.417 677.17H108.921V678.15H105.729V682.252H104.553V678.15H101.417V677.17ZM103.349 673.768C103.349 674.291 103.526 674.72 103.881 675.056C104.236 675.392 104.688 675.56 105.239 675.56C105.818 675.56 106.289 675.392 106.653 675.056C107.026 674.72 107.213 674.291 107.213 673.768C107.213 673.245 107.026 672.816 106.653 672.48C106.289 672.135 105.818 671.962 105.239 671.962C104.688 671.962 104.236 672.135 103.881 672.48C103.526 672.816 103.349 673.245 103.349 673.768ZM107.437 679.13H110.195V670.744H111.385V682.644H110.195V680.068H107.437V679.13ZM123.335 670.73V682.644H122.159V676.078H119.891V675.126H122.159V670.73H123.335ZM113.689 671.906H119.429V672.9H114.851V675.126H119.037V676.148H114.851V678.542H119.723V679.522H113.689V671.906Z" fill="#414042"/>
<g filter="url(#filter5_d_542_8860)">
<rect x="289.481" y="660.764" width="32" height="32" rx="3" fill="#F6F6F6"/>
</g>
<path d="M303.114 679.872C303.916 679.135 304.57 678.509 305.074 677.996C305.578 677.483 306.002 676.96 306.348 676.428C306.702 675.887 306.88 675.392 306.88 674.944C306.88 674.309 306.698 673.791 306.334 673.39C305.97 672.989 305.503 672.788 304.934 672.788C304.514 672.788 304.108 672.928 303.716 673.208C303.333 673.488 303.044 673.852 302.848 674.3L301.812 673.866C302.082 673.25 302.512 672.746 303.1 672.354C303.688 671.962 304.299 671.766 304.934 671.766C305.531 671.766 306.063 671.901 306.53 672.172C307.006 672.443 307.374 672.821 307.636 673.306C307.897 673.782 308.028 674.328 308.028 674.944C308.028 675.541 307.832 676.157 307.44 676.792C307.057 677.427 306.595 678.024 306.054 678.584C305.512 679.135 304.817 679.793 303.968 680.558L303.464 681.02H308.182V682.028H302.036L301.896 681.02L303.114 679.872Z" fill="#414042"/>
<g filter="url(#filter6_d_542_8860)">
<rect x="21" y="721" width="320" height="56" rx="9" fill="#F5F3F2"/>
</g>
<rect x="37" y="733" width="32" height="32" rx="4" fill="#6A2C70"/>
<path d="M88.536 751.998V752.978H77.392V751.998H88.536ZM81.424 746.594C81.704 746.37 81.9047 746.197 82.026 746.076C82.1473 745.955 82.2267 745.847 82.264 745.754C82.3013 745.661 82.32 745.539 82.32 745.39V743.64H83.594V745.39C83.594 745.539 83.6127 745.661 83.65 745.754C83.6873 745.847 83.762 745.955 83.874 746.076C83.9953 746.197 84.196 746.37 84.476 746.594L87.668 749.156L86.996 749.996L83.804 747.434C83.4027 747.107 83.118 746.837 82.95 746.622C82.782 746.837 82.4973 747.107 82.096 747.434L78.918 749.996L78.246 749.156L81.424 746.594ZM100.472 752.068V753.062H89.3275V752.068H100.472ZM90.8115 743.99H98.9595V744.942H97.4615V749.156H98.9595V750.122H90.8395V749.156H92.3375V744.942H90.8115V743.99ZM96.2855 749.156V744.942H93.5275V749.156H96.2855ZM110.755 742.73V747.602H112.743V748.61H110.755V754.644H109.579V742.73H110.755ZM101.739 743.892H107.437V748.316H102.943V750.906H108.361V751.886H101.781V747.35H106.275V744.844H101.739V743.892ZM123.391 742.73V754.644H122.201V742.73H123.391ZM113.829 747.322C113.829 746.669 113.969 746.085 114.249 745.572C114.529 745.049 114.916 744.643 115.411 744.354C115.905 744.065 116.465 743.92 117.091 743.92C117.716 743.92 118.276 744.065 118.771 744.354C119.265 744.643 119.648 745.049 119.919 745.572C120.199 746.085 120.339 746.669 120.339 747.322C120.339 747.975 120.199 748.559 119.919 749.072C119.648 749.576 119.265 749.973 118.771 750.262C118.276 750.551 117.716 750.696 117.091 750.696C116.465 750.696 115.905 750.551 115.411 750.262C114.916 749.973 114.529 749.576 114.249 749.072C113.969 748.559 113.829 747.975 113.829 747.322ZM114.977 747.322C114.977 748.013 115.173 748.577 115.565 749.016C115.957 749.445 116.465 749.66 117.091 749.66C117.716 749.66 118.22 749.445 118.603 749.016C118.995 748.577 119.191 748.013 119.191 747.322C119.191 746.631 118.995 746.067 118.603 745.628C118.22 745.18 117.716 744.956 117.091 744.956C116.465 744.956 115.957 745.18 115.565 745.628C115.173 746.067 114.977 746.631 114.977 747.322ZM134.598 743.85V744.83H127.99V746.398H134.598V747.35H127.99V748.932H134.598V749.898H126.8V743.85H134.598ZM125.134 752.082H136.278V753.048H125.134V752.082Z" fill="#414042"/>
<g filter="url(#filter7_d_542_8860)">
<rect x="289.481" y="732.764" width="32" height="32" rx="3" fill="#F6F6F6"/>
</g>
<rect y="262" width="364" height="227" fill="#24244E"/>
<path d="M21.311 10.267C21.9637 10.267 22.4807 10.4027 22.862 10.674C23.2433 10.9453 23.5147 11.3707 23.676 11.95C23.8447 12.5293 23.929 13.281 23.929 14.205C23.929 15.129 23.8447 15.8807 23.676 16.46C23.5147 17.0393 23.2433 17.4647 22.862 17.736C22.4807 18.0073 21.9637 18.143 21.311 18.143C20.6657 18.143 20.1523 18.0073 19.771 17.736C19.3897 17.4647 19.1147 17.0393 18.946 16.46C18.7847 15.8807 18.704 15.129 18.704 14.205C18.704 13.281 18.7847 12.5293 18.946 11.95C19.1147 11.3707 19.3897 10.9453 19.771 10.674C20.1523 10.4027 20.6657 10.267 21.311 10.267ZM21.311 11.114C20.9957 11.114 20.7317 11.1727 20.519 11.29C20.3063 11.4 20.134 11.576 20.002 11.818C19.8773 12.06 19.7857 12.379 19.727 12.775C19.6757 13.1637 19.65 13.6403 19.65 14.205C19.65 14.7623 19.6757 15.239 19.727 15.635C19.7857 16.031 19.8773 16.35 20.002 16.592C20.134 16.834 20.3063 17.0137 20.519 17.131C20.7317 17.241 20.9957 17.296 21.311 17.296C21.6263 17.296 21.8903 17.241 22.103 17.131C22.323 17.0137 22.4953 16.834 22.62 16.592C22.752 16.35 22.8437 16.031 22.895 15.635C22.9537 15.239 22.983 14.7623 22.983 14.205C22.983 13.6403 22.9537 13.1637 22.895 12.775C22.8437 12.379 22.752 12.06 22.62 11.818C22.4953 11.576 22.323 11.4 22.103 11.29C21.8903 11.1727 21.6263 11.114 21.311 11.114ZM27.6639 10.278C28.2139 10.278 28.6539 10.344 28.9839 10.476C29.3213 10.6007 29.5743 10.8097 29.7429 11.103C29.9116 11.3963 30.0216 11.7887 30.0729 12.28C30.1316 12.7713 30.1609 13.3837 30.1609 14.117C30.1609 14.9677 30.1059 15.657 29.9959 16.185C29.8859 16.713 29.7136 17.12 29.4789 17.406C29.2516 17.6847 28.9509 17.8753 28.5769 17.978C28.2029 18.0807 27.7519 18.132 27.2239 18.132C27.0553 18.132 26.8243 18.1247 26.5309 18.11C26.2449 18.0953 25.9296 18.0477 25.5849 17.967L25.6729 17.252C25.8489 17.2667 26.0066 17.2777 26.1459 17.285C26.2853 17.2923 26.4356 17.296 26.5969 17.296C26.7656 17.296 26.9746 17.296 27.2239 17.296C27.6053 17.296 27.9243 17.252 28.1809 17.164C28.4376 17.076 28.6429 16.9183 28.7969 16.691C28.9509 16.4563 29.0609 16.13 29.1269 15.712C29.1929 15.294 29.2259 14.755 29.2259 14.095C29.2259 13.5157 29.2113 13.0353 29.1819 12.654C29.1599 12.2653 29.1013 11.9573 29.0059 11.73C28.9106 11.5027 28.7566 11.3413 28.5439 11.246C28.3313 11.1507 28.0343 11.103 27.6529 11.103C27.2349 11.103 26.9159 11.1727 26.6959 11.312C26.4833 11.4513 26.3403 11.653 26.2669 11.917C26.1936 12.181 26.1569 12.5037 26.1569 12.885C26.1569 13.2517 26.1936 13.5633 26.2669 13.82C26.3476 14.0693 26.4906 14.26 26.6959 14.392C26.9013 14.524 27.1836 14.59 27.5429 14.59C27.7849 14.59 28.0049 14.5607 28.2029 14.502C28.4083 14.436 28.6173 14.3297 28.8299 14.183C29.0426 14.029 29.2883 13.82 29.5669 13.556L29.6109 14.029C29.3763 14.3737 29.1453 14.645 28.9179 14.843C28.6979 15.0337 28.4596 15.1693 28.2029 15.25C27.9463 15.3233 27.6419 15.36 27.2899 15.36C26.7693 15.36 26.3586 15.2537 26.0579 15.041C25.7573 14.8283 25.5446 14.535 25.4199 14.161C25.2953 13.787 25.2329 13.3617 25.2329 12.885C25.2329 12.3057 25.3063 11.8253 25.4529 11.444C25.6069 11.0553 25.8599 10.7657 26.2119 10.575C26.5713 10.377 27.0553 10.278 27.6639 10.278ZM32.3419 13.16C32.4739 13.16 32.5655 13.1857 32.6169 13.237C32.6682 13.2883 32.6939 13.38 32.6939 13.512V14.106C32.6939 14.238 32.6682 14.3297 32.6169 14.381C32.5655 14.4323 32.4739 14.458 32.3419 14.458H32.0339C31.9092 14.458 31.8175 14.4323 31.7589 14.381C31.7075 14.3297 31.6819 14.238 31.6819 14.106V13.512C31.6819 13.38 31.7075 13.2883 31.7589 13.237C31.8175 13.1857 31.9092 13.16 32.0339 13.16H32.3419ZM32.3419 16.702C32.4739 16.702 32.5655 16.7277 32.6169 16.779C32.6682 16.8303 32.6939 16.922 32.6939 17.054V17.648C32.6939 17.78 32.6682 17.8717 32.6169 17.923C32.5655 17.9743 32.4739 18 32.3419 18H32.0339C31.9092 18 31.8175 17.9743 31.7589 17.923C31.7075 17.8717 31.6819 17.78 31.6819 17.648V17.054C31.6819 16.922 31.7075 16.8303 31.7589 16.779C31.8175 16.7277 31.9092 16.702 32.0339 16.702H32.3419ZM36.6685 10.41V18H35.7005V11.983C35.7005 11.873 35.7041 11.763 35.7115 11.653C35.7188 11.543 35.7335 11.433 35.7555 11.323L33.8965 11.906L33.7645 11.191L35.7005 10.41H36.6685ZM41.2493 10.3C41.7333 10.3 42.1293 10.3403 42.4373 10.421C42.7526 10.5017 42.9983 10.6227 43.1743 10.784C43.3576 10.9453 43.4823 11.1543 43.5483 11.411C43.6216 11.6603 43.6583 11.9573 43.6583 12.302C43.6583 12.632 43.6216 12.9217 43.5483 13.171C43.4749 13.4203 43.3576 13.622 43.1963 13.776C43.0423 13.9227 42.8369 14.0107 42.5803 14.04V14.084C42.9029 14.1133 43.1523 14.216 43.3283 14.392C43.5116 14.5607 43.6399 14.7917 43.7133 15.085C43.7866 15.371 43.8233 15.712 43.8233 16.108C43.8233 16.57 43.7536 16.9513 43.6143 17.252C43.4749 17.5453 43.2183 17.7617 42.8443 17.901C42.4776 18.0403 41.9459 18.11 41.2493 18.11C40.5673 18.11 40.0393 18.0403 39.6653 17.901C39.2913 17.7617 39.0309 17.5453 38.8843 17.252C38.7376 16.9513 38.6643 16.57 38.6643 16.108C38.6643 15.712 38.7009 15.371 38.7743 15.085C38.8549 14.7917 38.9869 14.5607 39.1703 14.392C39.3536 14.216 39.6029 14.1133 39.9183 14.084V14.04C39.6616 14.0107 39.4526 13.9227 39.2913 13.776C39.1299 13.622 39.0126 13.4203 38.9393 13.171C38.8659 12.9217 38.8293 12.632 38.8293 12.302C38.8293 11.9573 38.8659 11.6603 38.9393 11.411C39.0126 11.1543 39.1373 10.9453 39.3133 10.784C39.4966 10.6227 39.7423 10.5017 40.0503 10.421C40.3656 10.3403 40.7653 10.3 41.2493 10.3ZM41.2713 14.447C40.9266 14.447 40.6443 14.469 40.4243 14.513C40.2043 14.557 40.0319 14.634 39.9073 14.744C39.7826 14.8467 39.6946 14.9933 39.6433 15.184C39.5993 15.3747 39.5773 15.6167 39.5773 15.91C39.5773 16.2473 39.6213 16.5187 39.7093 16.724C39.8046 16.922 39.9733 17.065 40.2153 17.153C40.4646 17.2337 40.8129 17.274 41.2603 17.274C41.7076 17.274 42.0486 17.2337 42.2833 17.153C42.5179 17.065 42.6793 16.922 42.7673 16.724C42.8553 16.5187 42.8993 16.2473 42.8993 15.91C42.8993 15.6093 42.8736 15.3637 42.8223 15.173C42.7783 14.9823 42.6976 14.8357 42.5803 14.733C42.4629 14.623 42.2979 14.5497 42.0853 14.513C41.8726 14.469 41.6013 14.447 41.2713 14.447ZM41.2603 11.081C40.8423 11.081 40.5233 11.1213 40.3033 11.202C40.0833 11.2827 39.9293 11.4183 39.8413 11.609C39.7606 11.7997 39.7203 12.06 39.7203 12.39C39.7203 12.7347 39.7606 13.0023 39.8413 13.193C39.9293 13.3763 40.0833 13.5047 40.3033 13.578C40.5306 13.644 40.8533 13.677 41.2713 13.677C41.6966 13.677 42.0156 13.6403 42.2283 13.567C42.4483 13.4937 42.5949 13.3653 42.6683 13.182C42.7416 12.9913 42.7783 12.7273 42.7783 12.39C42.7783 12.06 42.7379 11.7997 42.6573 11.609C42.5839 11.4183 42.4373 11.2827 42.2173 11.202C41.9973 11.1213 41.6783 11.081 41.2603 11.081Z" fill="white"/>
<path d="M58.5022 10.4531C57.567 9.51562 56.3214 9 54.9978 9C52.2656 9 50.0424 11.2232 50.0424 13.9554C50.0424 14.8281 50.2701 15.6808 50.7031 16.433L50 19L52.6272 18.3103C53.3504 18.7054 54.1652 18.9129 54.9955 18.9129H54.9978C57.7277 18.9129 60 16.6897 60 13.9576C60 12.6339 59.4375 11.3906 58.5022 10.4531ZM54.9978 18.0781C54.2567 18.0781 53.5312 17.8795 52.8996 17.5045L52.75 17.4152L51.192 17.8237L51.6071 16.3036L51.5089 16.1473C51.096 15.4911 50.8795 14.7344 50.8795 13.9554C50.8795 11.6853 52.7277 9.83705 55 9.83705C56.1004 9.83705 57.1339 10.2656 57.9107 11.0446C58.6875 11.8237 59.1652 12.8571 59.1629 13.9576C59.1629 16.2299 57.2679 18.0781 54.9978 18.0781ZM57.2567 14.9933C57.1339 14.9308 56.5246 14.6317 56.4107 14.5915C56.2969 14.5491 56.2143 14.529 56.1317 14.654C56.0491 14.779 55.8125 15.0558 55.7388 15.1406C55.6674 15.2232 55.5938 15.2344 55.471 15.1719C54.7433 14.808 54.2656 14.5223 53.7857 13.6987C53.6585 13.4799 53.9129 13.4955 54.1496 13.0223C54.1897 12.9397 54.1696 12.8683 54.1384 12.8058C54.1071 12.7433 53.8594 12.1339 53.7567 11.8862C53.6563 11.6451 53.5536 11.6786 53.4777 11.6741C53.4063 11.6696 53.3237 11.6696 53.2411 11.6696C53.1585 11.6696 53.0246 11.7009 52.9107 11.8237C52.7969 11.9487 52.4777 12.2478 52.4777 12.8571C52.4777 13.4665 52.9219 14.0558 52.9821 14.1384C53.0446 14.221 53.8549 15.471 55.0982 16.0089C55.8839 16.3482 56.192 16.3772 56.5848 16.3192C56.8237 16.2835 57.317 16.0201 57.4196 15.7299C57.5223 15.4397 57.5223 15.192 57.4911 15.1406C57.4621 15.0848 57.3795 15.0536 57.2567 14.9933Z" fill="white"/>
<path d="M265.988 18.9751C265.371 18.9751 264.79 18.8584 264.244 18.6251C263.698 18.3918 263.223 18.073 262.819 17.6688C262.415 17.2647 262.094 16.7897 261.856 16.2438C261.619 15.698 261.5 15.1137 261.5 14.4909C261.5 13.8682 261.619 13.2848 261.856 12.7409C262.094 12.197 262.415 11.7209 262.819 11.3126C263.223 10.9043 263.698 10.5834 264.244 10.3501C264.79 10.1168 265.371 10.0001 265.988 10.0001C266.604 10.0001 267.185 10.1168 267.731 10.3501C268.277 10.5834 268.754 10.9043 269.163 11.3126C269.571 11.7209 269.892 12.197 270.125 12.7409C270.358 13.2848 270.475 13.8682 270.475 14.4909C270.475 15.1137 270.358 15.698 270.125 16.2438C269.892 16.7897 269.571 17.2647 269.163 17.6688C268.754 18.073 268.277 18.3918 267.731 18.6251C267.185 18.8584 266.604 18.9751 265.988 18.9751ZM267.5 16.5251L268.025 16.0001L266.4 14.3751V12.0001H265.65V14.6751L267.5 16.5251ZM262.675 9.1626L263.2 9.6876L261.15 11.6626L260.625 11.1376L262.675 9.1626ZM269.3 9.1626L271.35 11.1376L270.825 11.6626L268.775 9.6876L269.3 9.1626ZM265.988 18.2251C267.029 18.2251 267.912 17.8624 268.637 17.1371C269.363 16.4117 269.725 15.5284 269.725 14.4871C269.725 13.4458 269.362 12.5626 268.637 11.8376C267.912 11.1126 267.028 10.7501 265.987 10.7501C264.946 10.7501 264.062 11.1128 263.338 11.8381C262.613 12.5635 262.25 13.4468 262.25 14.4881C262.25 15.5294 262.613 16.4126 263.338 17.1376C264.063 17.8626 264.947 18.2251 265.988 18.2251Z" fill="white"/>
<g clip-path="url(#clip1_542_8860)">
<path d="M282 18.5L276 12.5C276.825 11.7167 277.746 11.1042 278.763 10.6625C279.779 10.2208 280.858 10 282 10C283.142 10 284.221 10.2208 285.238 10.6625C286.254 11.1042 287.175 11.7167 288 12.5L282 18.5Z" fill="white"/>
</g>
<path d="M293.375 13.75L302.542 8.75V13.75H293.375ZM297.099 13.375H301.854V9.65L297.099 12.2438V13.375Z" fill="white"/>
<g clip-path="url(#clip2_542_8860)">
<path d="M292.905 19.5L302.072 14.5V19.5H292.905ZM294.555 19.125H301.384V15.4L294.555 19.125Z" fill="white"/>
</g>
<path d="M311 19C310.858 19 310.74 18.9521 310.644 18.8562C310.548 18.7604 310.5 18.6417 310.5 18.5V10.5C310.5 10.3583 310.548 10.2396 310.644 10.1438C310.74 10.0479 310.858 10 311 10H312V9H314V10H315C315.142 10 315.26 10.0479 315.356 10.1438C315.452 10.2396 315.5 10.3583 315.5 10.5V18.5C315.5 18.6417 315.452 18.7604 315.356 18.8562C315.26 18.9521 315.142 19 315 19H311Z" fill="white"/>
<path d="M323.204 10.3C323.688 10.3 324.084 10.3403 324.392 10.421C324.708 10.5017 324.953 10.6227 325.129 10.784C325.313 10.9453 325.437 11.1543 325.503 11.411C325.577 11.6603 325.613 11.9573 325.613 12.302C325.613 12.632 325.577 12.9217 325.503 13.171C325.43 13.4203 325.313 13.622 325.151 13.776C324.997 13.9227 324.792 14.0107 324.535 14.04V14.084C324.858 14.1133 325.107 14.216 325.283 14.392C325.467 14.5607 325.595 14.7917 325.668 15.085C325.742 15.371 325.778 15.712 325.778 16.108C325.778 16.57 325.709 16.9513 325.569 17.252C325.43 17.5453 325.173 17.7617 324.799 17.901C324.433 18.0403 323.901 18.11 323.204 18.11C322.522 18.11 321.994 18.0403 321.62 17.901C321.246 17.7617 320.986 17.5453 320.839 17.252C320.693 16.9513 320.619 16.57 320.619 16.108C320.619 15.712 320.656 15.371 320.729 15.085C320.81 14.7917 320.942 14.5607 321.125 14.392C321.309 14.216 321.558 14.1133 321.873 14.084V14.04C321.617 14.0107 321.408 13.9227 321.246 13.776C321.085 13.622 320.968 13.4203 320.894 13.171C320.821 12.9217 320.784 12.632 320.784 12.302C320.784 11.9573 320.821 11.6603 320.894 11.411C320.968 11.1543 321.092 10.9453 321.268 10.784C321.452 10.6227 321.697 10.5017 322.005 10.421C322.321 10.3403 322.72 10.3 323.204 10.3ZM323.226 14.447C322.882 14.447 322.599 14.469 322.379 14.513C322.159 14.557 321.987 14.634 321.862 14.744C321.738 14.8467 321.65 14.9933 321.598 15.184C321.554 15.3747 321.532 15.6167 321.532 15.91C321.532 16.2473 321.576 16.5187 321.664 16.724C321.76 16.922 321.928 17.065 322.17 17.153C322.42 17.2337 322.768 17.274 323.215 17.274C323.663 17.274 324.004 17.2337 324.238 17.153C324.473 17.065 324.634 16.922 324.722 16.724C324.81 16.5187 324.854 16.2473 324.854 15.91C324.854 15.6093 324.829 15.3637 324.777 15.173C324.733 14.9823 324.653 14.8357 324.535 14.733C324.418 14.623 324.253 14.5497 324.04 14.513C323.828 14.469 323.556 14.447 323.226 14.447ZM323.215 11.081C322.797 11.081 322.478 11.1213 322.258 11.202C322.038 11.2827 321.884 11.4183 321.796 11.609C321.716 11.7997 321.675 12.06 321.675 12.39C321.675 12.7347 321.716 13.0023 321.796 13.193C321.884 13.3763 322.038 13.5047 322.258 13.578C322.486 13.644 322.808 13.677 323.226 13.677C323.652 13.677 323.971 13.6403 324.183 13.567C324.403 13.4937 324.55 13.3653 324.623 13.182C324.697 12.9913 324.733 12.7273 324.733 12.39C324.733 12.06 324.693 11.7997 324.612 11.609C324.539 11.4183 324.392 11.2827 324.172 11.202C323.952 11.1213 323.633 11.081 323.215 11.081ZM331.261 10.41C331.415 10.41 331.536 10.4393 331.624 10.498C331.712 10.5493 331.767 10.6263 331.789 10.729C331.818 10.8243 331.811 10.9417 331.767 11.081L329.402 18H328.434L330.568 11.796C330.605 11.6933 330.641 11.598 330.678 11.51C330.715 11.4147 330.755 11.323 330.799 11.235H327.015L326.971 10.41H331.261ZM334.448 10.267C334.888 10.267 335.236 10.344 335.493 10.498C335.757 10.6447 335.944 10.883 336.054 11.213C336.164 11.543 336.219 11.9793 336.219 12.522C336.219 13.0573 336.164 13.49 336.054 13.82C335.944 14.15 335.757 14.392 335.493 14.546C335.236 14.7 334.888 14.777 334.448 14.777C334.015 14.777 333.667 14.7 333.403 14.546C333.146 14.392 332.963 14.15 332.853 13.82C332.743 13.49 332.688 13.0573 332.688 12.522C332.688 11.9793 332.743 11.543 332.853 11.213C332.963 10.883 333.146 10.6447 333.403 10.498C333.667 10.344 334.015 10.267 334.448 10.267ZM334.448 10.861C334.184 10.861 333.975 10.916 333.821 11.026C333.674 11.1287 333.568 11.301 333.502 11.543C333.436 11.785 333.403 12.1113 333.403 12.522C333.403 12.9327 333.436 13.259 333.502 13.501C333.568 13.743 333.674 13.919 333.821 14.029C333.975 14.1317 334.184 14.183 334.448 14.183C334.719 14.183 334.928 14.1317 335.075 14.029C335.229 13.919 335.335 13.743 335.394 13.501C335.46 13.259 335.493 12.9327 335.493 12.522C335.493 12.1113 335.46 11.785 335.394 11.543C335.335 11.301 335.229 11.1287 335.075 11.026C334.928 10.916 334.719 10.861 334.448 10.861ZM339.86 10.41L334.943 18H334.283L339.2 10.41H339.86ZM339.717 13.6C340.157 13.6 340.505 13.677 340.762 13.831C341.019 13.985 341.202 14.227 341.312 14.557C341.422 14.8797 341.477 15.3087 341.477 15.844C341.477 16.3793 341.422 16.8157 341.312 17.153C341.202 17.483 341.019 17.725 340.762 17.879C340.505 18.0257 340.157 18.099 339.717 18.099C339.284 18.099 338.936 18.0257 338.672 17.879C338.415 17.725 338.232 17.483 338.122 17.153C338.012 16.8157 337.957 16.3793 337.957 15.844C337.957 15.3087 338.012 14.8797 338.122 14.557C338.232 14.227 338.415 13.985 338.672 13.831C338.936 13.677 339.284 13.6 339.717 13.6ZM339.706 14.194C339.442 14.194 339.233 14.2453 339.079 14.348C338.925 14.4507 338.819 14.623 338.76 14.865C338.701 15.107 338.672 15.4333 338.672 15.844C338.672 16.2547 338.701 16.5847 338.76 16.834C338.819 17.076 338.925 17.252 339.079 17.362C339.233 17.4647 339.442 17.516 339.706 17.516C339.977 17.516 340.186 17.4647 340.333 17.362C340.487 17.252 340.597 17.076 340.663 16.834C340.729 16.5847 340.762 16.2547 340.762 15.844C340.762 15.4333 340.729 15.107 340.663 14.865C340.597 14.623 340.487 14.4507 340.333 14.348C340.186 14.2453 339.977 14.194 339.706 14.194Z" fill="white"/>
<path d="M103.202 444.224L255.862 165.446L373.058 329.276L369.5 489L319 489L204 489L136.5 489L103.202 444.224Z" fill="#181839" fill-opacity="0.7"/>
<path d="M101.161 169.743C101.161 163.81 105.97 159 111.904 159H247.265C253.198 159 258.008 163.81 258.008 169.743V438.317C258.008 444.25 253.198 449.06 247.265 449.06H111.904C105.97 449.06 101.161 444.25 101.161 438.317V169.743Z" fill="#F5F3F2"/>
<path d="M109.589 368.488C109.589 362.554 114.399 357.745 120.332 357.745H238.504C244.438 357.745 249.247 362.554 249.247 368.488V428.648C249.247 434.581 244.438 439.391 238.504 439.391H120.332C114.399 439.391 109.589 434.581 109.589 428.648V368.488Z" fill="#6A2C70"/>
<path d="M109.589 368.488C109.589 362.554 114.399 357.745 120.332 357.745H238.504C244.438 357.745 249.247 362.554 249.247 368.488V428.648C249.247 434.581 244.438 439.391 238.504 439.391H120.332C114.399 439.391 109.589 434.581 109.589 428.648V368.488Z" fill="#B83B5E"/>
<path d="M109.589 316.921H249.247V398.568H109.589V316.921Z" fill="#6A2C70"/>
<path d="M109.589 316.921H249.247V398.568H109.589V316.921Z" fill="#B83B5E"/>
<path d="M109.589 224.094L249.247 222.383V333.036H109.589V224.094Z" fill="#6A2C70"/>
<path d="M109.589 224.094L249.247 222.383V333.036H109.589V224.094Z" fill="#F9ED69"/>
<path d="M218 215.938C229.361 215.938 246.796 217.905 249.414 222.232L245.813 243.869H112.456C108.144 222.384 110.155 222.782 110.829 221.846C113.022 218.805 150.041 220.772 162.933 222.202C178.51 222.202 203.797 215.938 218 215.938Z" fill="#F9ED69"/>
<path d="M274.307 77.3244L342 51L360 75.9999L360 121L360 157.5L360 197L294.785 105.979L274.307 77.3244Z" fill="#181839" fill-opacity="0.4"/>
<rect x="272" y="48" width="72" height="32" rx="8" fill="#F4CC36"/>
<g filter="url(#filter8_d_542_8860)">
<path d="M295.715 58.1823V62.279H297.351V63.3699H295.715V68.6303H294.394V58.1823H295.715ZM287.751 59.1883H292.769V60.267H289.061V64.7517H293.254V65.8304H287.751V59.1883ZM306.058 65.091V68.8484H299.173V65.091H306.058ZM297.755 63.2972H307.488V64.3517H297.755V63.2972ZM299.682 60.4367C299.682 59.968 299.804 59.5559 300.046 59.2004C300.297 58.8449 300.64 58.5701 301.076 58.3762C301.521 58.1823 302.03 58.0853 302.604 58.0853C303.185 58.0853 303.698 58.1823 304.143 58.3762C304.595 58.5701 304.947 58.8449 305.197 59.2004C305.456 59.5559 305.585 59.968 305.585 60.4367C305.585 60.873 305.456 61.269 305.197 61.6245C304.947 61.9801 304.595 62.2588 304.143 62.4609C303.69 62.6629 303.177 62.7639 302.604 62.7639C302.038 62.7639 301.533 62.6629 301.088 62.4609C300.644 62.2588 300.297 61.9841 300.046 61.6366C299.804 61.2811 299.682 60.8811 299.682 60.4367ZM304.773 67.8061V66.1213H300.458V67.8061H304.773ZM300.943 60.4367C300.943 60.8003 301.097 61.0993 301.404 61.3336C301.719 61.568 302.123 61.6851 302.616 61.6851C303.117 61.6851 303.525 61.568 303.84 61.3336C304.163 61.0993 304.325 60.8003 304.325 60.4367C304.325 60.0408 304.167 59.7297 303.852 59.5034C303.537 59.2691 303.125 59.1519 302.616 59.1519C302.115 59.1519 301.711 59.2691 301.404 59.5034C301.097 59.7297 300.943 60.0408 300.943 60.4367ZM317.953 66.1577V67.2485H308.183V66.1577H317.953ZM309.783 61.8669C309.783 61.269 309.921 60.7357 310.195 60.267C310.478 59.7903 310.866 59.4226 311.359 59.164C311.852 58.8974 312.413 58.764 313.044 58.764C313.682 58.764 314.252 58.8974 314.753 59.164C315.254 59.4226 315.642 59.7903 315.916 60.267C316.199 60.7357 316.341 61.269 316.341 61.8669C316.341 62.4649 316.199 62.9982 315.916 63.4669C315.642 63.9355 315.254 64.3032 314.753 64.5698C314.252 64.8284 313.682 64.9577 313.044 64.9577C312.413 64.9577 311.848 64.8284 311.347 64.5698C310.854 64.3032 310.47 63.9355 310.195 63.4669C309.921 62.9982 309.783 62.4649 309.783 61.8669ZM311.068 61.8669C311.068 62.4487 311.25 62.9295 311.613 63.3093C311.985 63.681 312.462 63.8669 313.044 63.8669C313.642 63.8669 314.127 63.681 314.498 63.3093C314.87 62.9295 315.056 62.4487 315.056 61.8669C315.056 61.2771 314.87 60.7963 314.498 60.4246C314.127 60.0448 313.642 59.8549 313.044 59.8549C312.462 59.8549 311.985 60.0448 311.613 60.4246C311.25 60.7963 311.068 61.2771 311.068 61.8669ZM322.817 66.2789V64.7517H320.09V61.2367H325.69V59.9398H320.066V58.8853H326.926V62.2669H321.314V63.6972H327.169V64.7517H324.138V66.2789H328.381V67.3576H318.611V66.2789H322.817Z" fill="white"/>
</g>
<path d="M307.096 459.316V464.68H305.944V462.472H304.036C303.94 463.096 303.648 463.6 303.16 463.984C302.68 464.368 302.088 464.56 301.384 464.56C300.864 464.56 300.4 464.452 299.992 464.236C299.584 464.02 299.264 463.72 299.032 463.336C298.808 462.952 298.696 462.516 298.696 462.028C298.696 461.54 298.808 461.104 299.032 460.72C299.264 460.336 299.584 460.036 299.992 459.82C300.4 459.604 300.864 459.496 301.384 459.496C302.08 459.496 302.664 459.684 303.136 460.06C303.616 460.428 303.912 460.92 304.024 461.536H305.944V459.316H307.096ZM299.824 462.028C299.824 462.5 299.968 462.888 300.256 463.192C300.544 463.488 300.92 463.636 301.384 463.636C301.84 463.636 302.212 463.488 302.5 463.192C302.788 462.888 302.932 462.5 302.932 462.028C302.932 461.556 302.788 461.172 302.5 460.876C302.212 460.58 301.84 460.432 301.384 460.432C300.92 460.432 300.544 460.58 300.256 460.876C299.968 461.172 299.824 461.556 299.824 462.028ZM300.568 465.22H307.096V467.896H301.732V468.892H307.372V469.804H300.58V467.032H305.944V466.132H300.568V465.22ZM316.761 466.096V469.804H310.029V466.096H316.761ZM308.601 464.404H318.189V465.328H308.601V464.404ZM310.521 461.524C310.521 461.06 310.641 460.656 310.881 460.312C311.121 459.96 311.457 459.692 311.889 459.508C312.321 459.316 312.817 459.22 313.377 459.22C313.945 459.22 314.449 459.316 314.889 459.508C315.329 459.692 315.673 459.96 315.921 460.312C316.169 460.656 316.293 461.06 316.293 461.524C316.293 461.956 316.169 462.348 315.921 462.7C315.673 463.044 315.325 463.316 314.877 463.516C314.437 463.708 313.937 463.804 313.377 463.804C312.825 463.804 312.333 463.708 311.901 463.516C311.469 463.316 311.129 463.044 310.881 462.7C310.641 462.348 310.521 461.956 310.521 461.524ZM315.621 468.868V467.008H311.169V468.868H315.621ZM311.637 461.524C311.637 461.9 311.797 462.216 312.117 462.472C312.445 462.72 312.865 462.844 313.377 462.844C313.905 462.844 314.337 462.72 314.673 462.472C315.009 462.216 315.177 461.9 315.177 461.524C315.177 461.108 315.013 460.78 314.685 460.54C314.357 460.3 313.921 460.18 313.377 460.18C312.849 460.18 312.425 460.3 312.105 460.54C311.793 460.78 311.637 461.108 311.637 461.524ZM321.644 465.712H331.244V466.66H327.02V469.948H325.856V466.66H321.644V465.712ZM325.148 462.172C325.332 462.052 325.48 461.948 325.592 461.86C325.712 461.772 325.784 461.704 325.808 461.656C325.84 461.6 325.856 461.528 325.856 461.44H322.784V460.48H325.88V459.412H327.056V460.48H330.152V461.44H327.068C327.068 461.528 327.08 461.6 327.104 461.656C327.136 461.704 327.196 461.764 327.284 461.836C327.372 461.908 327.536 462.02 327.776 462.172L330.512 463.984L329.912 464.872L327.2 463.06C326.856 462.828 326.612 462.636 326.468 462.484C326.3 462.652 326.06 462.844 325.748 463.06L323 464.872L322.424 463.984L325.148 462.172ZM340.142 459.304V463.48H341.762V464.44H340.142V469.564H338.966V459.304H340.142ZM332.222 465.844C332.942 465.652 333.614 465.332 334.238 464.884C334.862 464.436 335.358 463.896 335.726 463.264C336.102 462.632 336.29 461.968 336.29 461.272V461.26H332.534V460.312H337.394V461.272C337.394 462.144 337.162 462.972 336.698 463.756C336.242 464.532 335.638 465.2 334.886 465.76C334.134 466.312 333.338 466.7 332.498 466.924L332.222 465.844Z" fill="#F5F3F2"/>
<path d="M283.45 463.55V459.75H281.55V463.55H277.75V465.45H281.55V469.25H283.45V465.45H287.25V463.55H283.45ZM282.5 474C279.98 474 277.564 472.999 275.782 471.218C274.001 469.436 273 467.02 273 464.5C273 461.98 274.001 459.564 275.782 457.782C277.564 456.001 279.98 455 282.5 455C285.02 455 287.436 456.001 289.218 457.782C290.999 459.564 292 461.98 292 464.5C292 467.02 290.999 469.436 289.218 471.218C287.436 472.999 285.02 474 282.5 474Z" fill="#D7D6D5"/>
</g>
<defs>
<filter id="filter0_d_542_8860" x="17" y="505" width="328" height="64" filterUnits="userSpaceOnUse" color-interpolation-filters="sRGB">
<feFlood flood-opacity="0" result="BackgroundImageFix"/>
<feColorMatrix in="SourceAlpha" type="matrix" values="0 0 0 0 0 0 0 0 0 0 0 0 0 0 0 0 0 0 127 0" result="hardAlpha"/>
<feOffset dy="4"/>
<feGaussianBlur stdDeviation="2"/>
<feComposite in2="hardAlpha" operator="out"/>
<feColorMatrix type="matrix" values="0 0 0 0 0 0 0 0 0 0 0 0 0 0 0 0 0 0 0.1 0"/>
<feBlend mode="normal" in2="BackgroundImageFix" result="effect1_dropShadow_542_8860"/>
<feBlend mode="normal" in="SourceGraphic" in2="effect1_dropShadow_542_8860" result="shape"/>
</filter>
<filter id="filter1_d_542_8860" x="287.981" y="515.264" width="36" height="36" filterUnits="userSpaceOnUse" color-interpolation-filters="sRGB">
<feFlood flood-opacity="0" result="BackgroundImageFix"/>
<feColorMatrix in="SourceAlpha" type="matrix" values="0 0 0 0 0 0 0 0 0 0 0 0 0 0 0 0 0 0 127 0" result="hardAlpha"/>
<feOffset dx="0.5" dy="0.5"/>
<feGaussianBlur stdDeviation="1"/>
<feComposite in2="hardAlpha" operator="out"/>
<feColorMatrix type="matrix" values="0 0 0 0 0 0 0 0 0 0 0 0 0 0 0 0 0 0 0.15 0"/>
<feBlend mode="normal" in2="BackgroundImageFix" result="effect1_dropShadow_542_8860"/>
<feBlend mode="normal" in="SourceGraphic" in2="effect1_dropShadow_542_8860" result="shape"/>
</filter>
<filter id="filter2_d_542_8860" x="17" y="577" width="328" height="64" filterUnits="userSpaceOnUse" color-interpolation-filters="sRGB">
<feFlood flood-opacity="0" result="BackgroundImageFix"/>
<feColorMatrix in="SourceAlpha" type="matrix" values="0 0 0 0 0 0 0 0 0 0 0 0 0 0 0 0 0 0 127 0" result="hardAlpha"/>
<feOffset dy="4"/>
<feGaussianBlur stdDeviation="2"/>
<feComposite in2="hardAlpha" operator="out"/>
<feColorMatrix type="matrix" values="0 0 0 0 0 0 0 0 0 0 0 0 0 0 0 0 0 0 0.1 0"/>
<feBlend mode="normal" in2="BackgroundImageFix" result="effect1_dropShadow_542_8860"/>
<feBlend mode="normal" in="SourceGraphic" in2="effect1_dropShadow_542_8860" result="shape"/>
</filter>
<filter id="filter3_d_542_8860" x="287.981" y="587.264" width="36" height="36" filterUnits="userSpaceOnUse" color-interpolation-filters="sRGB">
<feFlood flood-opacity="0" result="BackgroundImageFix"/>
<feColorMatrix in="SourceAlpha" type="matrix" values="0 0 0 0 0 0 0 0 0 0 0 0 0 0 0 0 0 0 127 0" result="hardAlpha"/>
<feOffset dx="0.5" dy="0.5"/>
<feGaussianBlur stdDeviation="1"/>
<feComposite in2="hardAlpha" operator="out"/>
<feColorMatrix type="matrix" values="0 0 0 0 0 0 0 0 0 0 0 0 0 0 0 0 0 0 0.15 0"/>
<feBlend mode="normal" in2="BackgroundImageFix" result="effect1_dropShadow_542_8860"/>
<feBlend mode="normal" in="SourceGraphic" in2="effect1_dropShadow_542_8860" result="shape"/>
</filter>
<filter id="filter4_d_542_8860" x="17" y="649" width="328" height="64" filterUnits="userSpaceOnUse" color-interpolation-filters="sRGB">
<feFlood flood-opacity="0" result="BackgroundImageFix"/>
<feColorMatrix in="SourceAlpha" type="matrix" values="0 0 0 0 0 0 0 0 0 0 0 0 0 0 0 0 0 0 127 0" result="hardAlpha"/>
<feOffset dy="4"/>
<feGaussianBlur stdDeviation="2"/>
<feComposite in2="hardAlpha" operator="out"/>
<feColorMatrix type="matrix" values="0 0 0 0 0 0 0 0 0 0 0 0 0 0 0 0 0 0 0.1 0"/>
<feBlend mode="normal" in2="BackgroundImageFix" result="effect1_dropShadow_542_8860"/>
<feBlend mode="normal" in="SourceGraphic" in2="effect1_dropShadow_542_8860" result="shape"/>
</filter>
<filter id="filter5_d_542_8860" x="287.981" y="659.264" width="36" height="36" filterUnits="userSpaceOnUse" color-interpolation-filters="sRGB">
<feFlood flood-opacity="0" result="BackgroundImageFix"/>
<feColorMatrix in="SourceAlpha" type="matrix" values="0 0 0 0 0 0 0 0 0 0 0 0 0 0 0 0 0 0 127 0" result="hardAlpha"/>
<feOffset dx="0.5" dy="0.5"/>
<feGaussianBlur stdDeviation="1"/>
<feComposite in2="hardAlpha" operator="out"/>
<feColorMatrix type="matrix" values="0 0 0 0 0 0 0 0 0 0 0 0 0 0 0 0 0 0 0.15 0"/>
<feBlend mode="normal" in2="BackgroundImageFix" result="effect1_dropShadow_542_8860"/>
<feBlend mode="normal" in="SourceGraphic" in2="effect1_dropShadow_542_8860" result="shape"/>
</filter>
<filter id="filter6_d_542_8860" x="17" y="721" width="328" height="64" filterUnits="userSpaceOnUse" color-interpolation-filters="sRGB">
<feFlood flood-opacity="0" result="BackgroundImageFix"/>
<feColorMatrix in="SourceAlpha" type="matrix" values="0 0 0 0 0 0 0 0 0 0 0 0 0 0 0 0 0 0 127 0" result="hardAlpha"/>
<feOffset dy="4"/>
<feGaussianBlur stdDeviation="2"/>
<feComposite in2="hardAlpha" operator="out"/>
<feColorMatrix type="matrix" values="0 0 0 0 0 0 0 0 0 0 0 0 0 0 0 0 0 0 0.1 0"/>
<feBlend mode="normal" in2="BackgroundImageFix" result="effect1_dropShadow_542_8860"/>
<feBlend mode="normal" in="SourceGraphic" in2="effect1_dropShadow_542_8860" result="shape"/>
</filter>
<filter id="filter7_d_542_8860" x="287.981" y="731.264" width="36" height="36" filterUnits="userSpaceOnUse" color-interpolation-filters="sRGB">
<feFlood flood-opacity="0" result="BackgroundImageFix"/>
<feColorMatrix in="SourceAlpha" type="matrix" values="0 0 0 0 0 0 0 0 0 0 0 0 0 0 0 0 0 0 127 0" result="hardAlpha"/>
<feOffset dx="0.5" dy="0.5"/>
<feGaussianBlur stdDeviation="1"/>
<feComposite in2="hardAlpha" operator="out"/>
<feColorMatrix type="matrix" values="0 0 0 0 0 0 0 0 0 0 0 0 0 0 0 0 0 0 0.15 0"/>
<feBlend mode="normal" in2="BackgroundImageFix" result="effect1_dropShadow_542_8860"/>
<feBlend mode="normal" in="SourceGraphic" in2="effect1_dropShadow_542_8860" result="shape"/>
</filter>
<filter id="filter8_d_542_8860" x="284.474" y="56.4467" width="47.1834" height="17.3174" filterUnits="userSpaceOnUse" color-interpolation-filters="sRGB">
<feFlood flood-opacity="0" result="BackgroundImageFix"/>
<feColorMatrix in="SourceAlpha" type="matrix" values="0 0 0 0 0 0 0 0 0 0 0 0 0 0 0 0 0 0 127 0" result="hardAlpha"/>
<feOffset dy="1.63855"/>
<feGaussianBlur stdDeviation="1.63855"/>
<feComposite in2="hardAlpha" operator="out"/>
<feColorMatrix type="matrix" values="0 0 0 0 0 0 0 0 0 0 0 0 0 0 0 0 0 0 0.1 0"/>
<feBlend mode="normal" in2="BackgroundImageFix" result="effect1_dropShadow_542_8860"/>
<feBlend mode="normal" in="SourceGraphic" in2="effect1_dropShadow_542_8860" result="shape"/>
</filter>
<clipPath id="clip0_542_8860">
<rect width="360" height="800" fill="white"/>
</clipPath>
<clipPath id="clip1_542_8860">
<rect width="12" height="12" fill="white" transform="translate(276 8)"/>
</clipPath>
<clipPath id="clip2_542_8860">
<rect width="11" height="6" fill="white" transform="translate(292 14)"/>
</clipPath>
</defs>
</svg>
