<svg width="13" height="13" viewBox="0 0 13 13" fill="none" xmlns="http://www.w3.org/2000/svg">
<g clip-path="url(#clip0_542_8612)">
<path d="M11.7812 13H1.21875C0.548438 13 0 12.4516 0 11.7812V1.21875C0 0.548438 0.548438 0 1.21875 0H11.7812C12.4516 0 13 0.548438 13 1.21875V11.7812C13 12.4516 12.4516 13 11.7812 13Z" fill="#FCC21B"/>
<path d="M12.6424 0.357422L0.357422 12.6424C0.578828 12.8628 0.883516 12.9999 1.21867 12.9999H11.7812C12.4515 12.9999 12.9999 12.4515 12.9999 11.7812V1.21867C12.9999 0.883516 12.8628 0.578828 12.6424 0.357422Z" fill="#F79329"/>
<path d="M11.3749 10.258C11.3749 10.9313 10.8295 11.4767 10.1562 11.4767H2.83252C2.16221 11.4767 1.61377 10.9283 1.61377 10.258V2.9353C1.61377 2.26499 2.16221 1.71655 2.83252 1.71655H10.1562C10.8295 1.71655 11.3749 2.26194 11.3749 2.9353V10.258Z" fill="#FCC21B"/>
<path d="M9.43717 7.45665H8.13412V2.68118C8.13412 2.6629 8.12904 2.64767 8.12193 2.63345C8.12193 2.63243 8.12193 2.6304 8.12092 2.62938C8.1199 2.62735 8.11686 2.62532 8.11584 2.62329C8.10772 2.61212 8.09857 2.60196 8.0874 2.59384C8.08334 2.59079 8.08029 2.58774 8.07623 2.58571C8.061 2.57759 8.04373 2.57251 8.02545 2.57251H6.36186C6.34459 2.57251 6.32936 2.57759 6.31412 2.5847C6.31006 2.58673 6.306 2.58978 6.30193 2.59282C6.29178 2.59993 6.28365 2.60704 6.27553 2.6172C6.2735 2.61923 6.27045 2.62024 6.26943 2.62329L3.10271 7.50845C3.1017 7.51048 3.1017 7.51353 3.10068 7.51556C3.09357 7.52876 3.0885 7.54298 3.08646 7.55821C3.08646 7.56024 3.08545 7.56329 3.08545 7.56634V8.90493C3.08545 8.96587 3.1342 9.01462 3.19412 9.01462H6.25014V10.3522C6.25014 10.4131 6.2999 10.4619 6.36084 10.4619H8.02342C8.08436 10.4619 8.13311 10.4131 8.13311 10.3522V9.0136H9.43615C9.49607 9.0136 9.54584 8.96485 9.54584 8.90392V7.56634C9.54686 7.50642 9.49709 7.45665 9.43717 7.45665ZM6.25115 5.61735V7.45665H5.05982L6.25115 5.61735Z" fill="white"/>
</g>
<defs>
<clipPath id="clip0_542_8612">
<rect width="13" height="13" fill="white"/>
</clipPath>
</defs>
</svg>
