<svg width="13" height="13" viewBox="0 0 13 13" fill="none" xmlns="http://www.w3.org/2000/svg">
<g clip-path="url(#clip0_542_8605)">
<path d="M11.7812 13H1.21875C0.548438 13 0 12.4516 0 11.7812V1.21875C0 0.548438 0.548438 0 1.21875 0H11.7812C12.4516 0 13 0.548438 13 1.21875V11.7812C13 12.4516 12.4516 13 11.7812 13Z" fill="#FCC21B"/>
<path d="M12.6424 0.357422L0.357422 12.6424C0.578828 12.8628 0.883516 12.9999 1.21867 12.9999H11.7812C12.4515 12.9999 12.9999 12.4515 12.9999 11.7812V1.21867C12.9999 0.883516 12.8628 0.578828 12.6424 0.357422Z" fill="#F79329"/>
<path d="M11.3749 10.2577C11.3749 10.9311 10.8296 11.4765 10.1562 11.4765H2.83252C2.16221 11.4765 1.61377 10.928 1.61377 10.2577V2.93506C1.61377 2.26475 2.16221 1.71631 2.83252 1.71631H10.1562C10.8296 1.71631 11.3749 2.2617 11.3749 2.93506V10.2577Z" fill="#FCC21B"/>
<path d="M5.99918 8.65716C5.31871 8.65716 4.58441 8.42153 4.21066 8.18794C4.18324 8.17067 4.14871 8.16763 4.11723 8.17778C4.08676 8.18895 4.06238 8.21435 4.05324 8.24481L3.63277 9.55396C3.61754 9.60067 3.63582 9.65044 3.67645 9.67685C3.72824 9.70935 4.95004 10.4761 6.28051 10.4761C6.55777 10.4761 6.82285 10.4416 7.06762 10.3746C7.50535 10.2537 8.31277 9.94091 8.79926 9.20458C9.13441 8.69778 9.24715 8.08231 9.11816 7.47294C8.97598 6.80161 8.55551 6.21356 7.93293 5.81442C7.45152 5.53005 6.82488 5.36856 6.06621 5.33099L6.17184 4.10411H8.8277C8.88762 4.10411 8.93738 4.05435 8.93738 3.99442V2.63044C8.93738 2.5695 8.88762 2.52075 8.8277 2.52075H4.49098C4.47574 2.52075 4.46152 2.5238 4.44934 2.52989C4.44527 2.53192 4.44223 2.53497 4.43715 2.537C4.42902 2.54106 4.4209 2.54614 4.41481 2.55224C4.41074 2.5563 4.4077 2.56036 4.40465 2.56544C4.39957 2.57153 4.39348 2.57763 4.39145 2.58474C4.38941 2.59083 4.38738 2.59692 4.38637 2.60302C4.38434 2.60911 4.38129 2.61419 4.38027 2.6213L3.98926 6.99966C3.98723 7.0352 4.00043 7.06974 4.02684 7.0931C4.04019 7.10425 4.05593 7.11216 4.07285 7.11621C4.08976 7.12026 4.10738 7.12035 4.12434 7.11646L4.15074 7.10935C4.27973 7.09208 4.77434 7.0281 5.32887 7.0281C6.18707 7.0281 6.77309 7.17638 7.02699 7.45771C7.14176 7.58466 7.18848 7.73903 7.16816 7.92794C7.10621 8.53122 6.49887 8.65716 5.99918 8.65716Z" fill="white"/>
</g>
<defs>
<clipPath id="clip0_542_8605">
<rect width="13" height="13" fill="white"/>
</clipPath>
</defs>
</svg>
