<svg width="13" height="13" viewBox="0 0 13 13" fill="none" xmlns="http://www.w3.org/2000/svg">
<g clip-path="url(#clip0_542_8626)">
<path d="M11.7812 13H1.21875C0.548438 13 0 12.4516 0 11.7812V1.21875C0 0.548438 0.548438 0 1.21875 0H11.7812C12.4516 0 13 0.548438 13 1.21875V11.7812C13 12.4516 12.4516 13 11.7812 13Z" fill="#FCC21B"/>
<path d="M12.6424 0.357422L0.357422 12.6424C0.578828 12.8628 0.883516 12.9999 1.21867 12.9999H11.7812C12.4515 12.9999 12.9999 12.4515 12.9999 11.7812V1.21867C12.9999 0.883516 12.8628 0.578828 12.6424 0.357422Z" fill="#F79329"/>
<path d="M11.3749 10.2577C11.3749 10.9311 10.8296 11.4765 10.1562 11.4765H2.83252C2.16221 11.4765 1.61377 10.928 1.61377 10.2577V2.93506C1.61377 2.26475 2.16221 1.71631 2.83252 1.71631H10.1562C10.8296 1.71631 11.3749 2.2617 11.3749 2.93506V10.2577Z" fill="#FCC21B"/>
<path d="M9.03505 8.41341H6.27865C6.71232 8.14731 7.47201 7.62224 8.33427 6.75997C9.14169 5.95255 9.41287 4.48294 8.44599 3.51505C7.88638 2.95646 7.2506 2.6731 6.55388 2.6731C5.01623 2.6731 3.73349 4.03302 3.67865 4.09091C3.64412 4.12849 3.63904 4.18333 3.66544 4.227L4.35912 5.35841C4.3774 5.38786 4.40685 5.40614 4.44037 5.41122C4.47388 5.4163 4.5074 5.40614 4.53279 5.38177C4.54091 5.37466 5.37779 4.59872 6.11107 4.59872C6.40662 4.59872 6.63716 4.72263 6.81693 4.97856C6.9642 5.18677 7.00685 5.41731 6.94896 5.67935C6.66865 6.93161 4.19763 8.34942 4.17224 8.36263C4.13771 8.38294 4.11537 8.42052 4.11537 8.46114V9.94294C4.11537 10.0059 4.16615 10.0567 4.22912 10.0567H9.03505C9.09701 10.0567 9.14677 10.0059 9.14677 9.94294V8.52614C9.14677 8.46317 9.09701 8.41341 9.03505 8.41341Z" fill="white"/>
</g>
<defs>
<clipPath id="clip0_542_8626">
<rect width="13" height="13" fill="white"/>
</clipPath>
</defs>
</svg>
