<svg width="202" height="202" viewBox="0 0 202 202" fill="none" xmlns="http://www.w3.org/2000/svg">
<circle cx="101" cy="101" r="101" fill="#02005F"/>
<path d="M82.9497 74.3248C76.6383 74.1399 74.0287 73.6446 71.8105 72.0377C69.9277 70.6737 67.2517 70.8287 66.0843 72.8393C65.6987 73.5033 65.5465 74.2772 65.6518 75.0377L68.1315 92.9465C68.3269 94.3582 69.1667 95.5991 70.4045 96.3054L73.1086 97.8482C73.7806 98.2317 74.5387 98.4391 75.3123 98.4512L118.02 99.1215L129.608 98.1323C131.803 97.9449 133.555 96.2257 133.785 94.0351L135.694 75.8115C135.795 74.8453 135.604 73.8607 135.013 73.0897C132.458 69.7563 126.384 64.8031 116.845 64.6816C103.326 64.5094 94.7052 74.6692 82.9497 74.3248Z" fill="#F99B9B"/>
<path d="M82.9497 74.3248C76.6383 74.1399 74.0287 73.6446 71.8105 72.0377C69.9277 70.6737 67.2517 70.8287 66.0843 72.8393C65.6987 73.5033 65.5465 74.2772 65.6518 75.0377L68.1315 92.9465C68.3269 94.3582 69.1667 95.5991 70.4045 96.3054L73.1086 97.8482C73.7806 98.2317 74.5387 98.4391 75.3123 98.4512L118.02 99.1215L129.608 98.1323C131.803 97.9449 133.555 96.2257 133.785 94.0351L135.694 75.8115C135.795 74.8453 135.604 73.8607 135.013 73.0897C132.458 69.7563 126.384 64.8031 116.845 64.6816C103.326 64.5094 94.7052 74.6692 82.9497 74.3248Z" fill="#F9ED69"/>
<path d="M130.439 116.179H71.231L74.8392 145.865L126.83 146.685L130.439 116.179Z" fill="#74BDE0"/>
<path d="M130.439 116.179H71.231L74.8392 145.865L126.83 146.685L130.439 116.179Z" fill="#6A2C70"/>
<path d="M134.538 85.0178H67.2941L71.392 107.323H130.44L134.538 85.0178Z" fill="#F8BC9A"/>
<path d="M134.538 85.0178H67.2941L71.392 107.323H130.44L134.538 85.0178Z" fill="#F08A5D"/>
<path d="M134.538 105.681H67.2941L71.392 125.363H130.44L134.538 105.681Z" fill="#F8D49A"/>
<path d="M134.538 105.681H67.2941L71.392 125.363H130.44L134.538 105.681Z" fill="#B83B5E"/>
<path d="M64.6426 67.2052L73.8539 142.65C74.1352 144.954 76.0913 146.686 78.4123 146.686H123.584C125.905 146.686 127.861 144.954 128.143 142.65L137.354 67.2052C137.688 64.4686 135.552 62.0564 132.795 62.0564H69.201C66.4441 62.0564 64.3085 64.4686 64.6426 67.2052Z" stroke="#EEFBFF" stroke-width="3.93624"/>
<path d="M64.6426 67.2052L73.8539 142.65C74.1352 144.954 76.0913 146.686 78.4123 146.686H123.584C125.905 146.686 127.861 144.954 128.143 142.65L137.354 67.2052C137.688 64.4686 135.552 62.0564 132.795 62.0564H69.201C66.4441 62.0564 64.3085 64.4686 64.6426 67.2052Z" stroke="#EEFBFF" stroke-width="3.93624"/>
<path d="M120.458 55.4951C126.152 55.4951 134.891 57.1352 136.203 60.7434L133.907 78.9485L68.3026 78.7845C65.8185 63.5303 66.0064 61.0715 66.9905 59.9234C67.9746 58.7753 71.0908 57.2992 93.0681 58.6113C101.61 58.6113 113.34 55.4951 120.458 55.4951Z" fill="#F9ED69"/>
</svg>
